<?xml version="1.0" encoding="UTF-8"?>
<svg width="411px" height="101px" viewBox="0 0 411 101" version="1.1" xmlns="http://www.w3.org/2000/svg" xmlns:xlink="http://www.w3.org/1999/xlink">
    <!-- Generator: Sketch 51.2 (57519) - http://www.bohemiancoding.com/sketch -->
    <title>main-head</title>
    <desc>Created with Sketch.</desc>
    <defs></defs>
    <g id="Page-1" stroke="none" stroke-width="1" fill="none" fill-rule="evenodd">
        <g id="Group-135" transform="translate(-518.000000, -66.000000)" fill="#222222">
            <g id="main-head" transform="translate(518.000000, 66.444000)">
                <path d="M37.1875,77.9043 C37.1875,78.8943 34.3525,80.5593 33.4525,80.5593 C32.8675,80.5593 32.6425,79.9743 32.4165,79.5243 C30.6175,75.6543 29.4025,73.0903 26.3875,69.8953 C26.2075,69.7153 25.9825,69.4453 25.9825,69.1303 C25.9825,68.3203 28.5925,66.7453 29.4025,66.7453 C31.0675,66.7453 37.1875,76.7793 37.1875,77.9043 M17.6135,63.3253 C17.9725,63.4153 18.7375,63.5503 18.7375,64.0453 C18.7375,64.3153 18.5575,64.4503 18.3775,64.5853 C17.5225,65.2153 17.4325,65.9353 17.1635,67.5093 C17.0735,68.0503 16.9825,68.6793 16.8475,69.4453 C16.8025,69.5803 16.7575,69.8043 16.7575,69.9403 C16.7575,70.5703 17.2085,70.8843 17.7485,70.8843 C17.9275,70.8843 18.1075,70.8403 18.2885,70.8403 C20.1325,70.8403 21.7975,70.8403 23.4175,71.8753 C25.6675,73.3153 26.1625,75.9253 26.1625,78.3993 C26.1625,82.5393 25.4425,88.6143 23.4625,92.2143 C21.6635,95.4993 18.6025,97.0733 14.9585,97.0733 C13.9675,97.0733 13.3825,96.9393 12.8875,95.9933 C12.5285,95.2293 12.1235,93.6543 12.1235,92.7993 C12.1235,92.3493 12.2575,92.0343 12.7085,92.0343 C13.1585,92.0343 13.9225,92.1693 14.8235,92.1693 C17.2525,92.1693 18.3775,91.6293 19.5025,89.4243 C20.8075,86.8143 21.4825,82.1343 21.4825,79.2543 C21.4825,77.0043 21.3475,75.1593 18.6475,75.1593 C16.0835,75.1593 15.6325,75.5193 15.3185,76.7793 C14.1485,81.3243 11.9885,86.1393 9.6035,90.1443 C8.5235,91.8993 6.4535,95.1833 5.1035,96.6243 C4.8775,96.8483 4.6085,97.0733 4.2925,97.0733 C3.5285,97.0733 0.6485,95.3633 0.6485,94.3293 C0.6485,93.9243 1.0085,93.5643 1.2785,93.2943 C4.8335,89.5593 7.4435,85.5543 9.2885,80.7393 C9.5125,80.1993 10.4135,77.7693 10.4135,77.3643 C10.4135,77.0043 10.1885,76.7793 9.8285,76.7793 C9.1985,76.7793 5.4625,78.0393 4.6985,78.3543 C4.4285,78.4443 4.0235,78.6243 3.7525,78.6243 C2.6285,78.6243 1.8635,74.2153 1.8635,73.9893 C1.8635,73.3153 2.6285,73.3153 3.2135,73.2693 C5.5535,73.0453 8.3885,72.3693 10.6835,71.8753 C11.5835,71.6953 12.0335,71.4693 12.1675,70.5253 C12.4385,68.9493 12.6185,66.3403 12.6185,64.7203 C12.6185,64.2253 12.5735,63.7303 12.5735,63.1903 C12.5735,62.8303 12.5735,62.2903 13.0685,62.2903 C13.5175,62.2903 16.9375,63.1453 17.6135,63.3253" id="Fill-117"></path>
                <path d="M49.0234,81.1895 C52.3534,74.5745 54.4684,71.3795 58.4284,65.3055 C59.1034,64.2255 59.6884,63.2805 60.2734,62.2005 C60.4084,61.9755 60.6324,61.5255 60.9484,61.5255 C61.3534,61.5255 63.0184,62.8755 63.4674,63.2355 C63.9184,63.5505 65.5384,64.6755 65.5384,65.1695 C65.5384,65.6655 65.1324,65.8455 64.7284,65.8905 C64.2334,65.9805 63.9184,66.1155 63.5584,66.4755 C62.6584,67.4645 61.4884,69.0855 60.7234,70.1655 C60.0924,71.0205 56.1784,76.7345 56.1784,77.3645 C56.1784,77.5895 56.4034,77.8145 56.6274,77.8145 C56.8984,77.8145 57.2124,77.6345 57.4384,77.4995 C58.9224,76.6895 60.4984,75.9695 62.2084,75.9695 C64.0074,75.9695 66.2124,76.9145 66.9774,78.6245 C67.3374,79.4795 67.4724,80.5145 67.4724,81.4595 C67.4724,82.9445 67.1584,84.3845 66.8874,85.8245 C66.6184,87.0395 66.1684,89.0645 66.1684,90.2335 C66.1684,90.9995 66.4384,91.9435 67.3374,91.9435 C69.8574,91.9435 74.1324,86.4995 75.5274,84.5195 C75.7524,84.2495 76.0674,83.8895 76.4274,83.8895 C77.2374,83.8895 78.7674,87.4445 78.7674,88.0745 C78.7674,88.4345 78.4974,88.7935 78.2724,89.0645 C77.2374,90.0995 76.2024,91.1335 75.1234,92.1245 C72.6474,94.3745 69.5874,96.8485 66.0784,96.8485 C62.8824,96.8485 61.5784,94.1045 61.5784,91.2695 C61.5784,89.5145 61.8484,87.7595 62.1634,86.0495 C62.3874,84.8345 62.6584,83.6195 62.6584,82.4045 C62.6584,81.2345 62.2524,80.3345 60.9484,80.3345 C59.6434,80.3345 58.1584,80.9645 57.0784,81.5945 C55.1884,82.6295 53.7484,83.9345 52.4884,85.6895 C50.6884,88.1195 49.1134,92.2135 48.3484,95.1385 C48.2134,95.7235 48.1244,96.5335 47.3584,96.5335 C46.6384,96.5335 43.0394,95.2295 43.0394,94.4635 C43.0394,94.4185 43.8034,92.5735 43.8484,92.4835 C45.5134,88.7045 47.1784,84.9245 49.0234,81.1895" id="Fill-118"></path>
                <path d="M109.5029,75.7896 C111.8889,75.7896 116.2979,76.1946 118.5479,77.0496 C118.9529,77.1846 119.1779,77.4546 119.1779,77.9496 C119.1779,78.6246 118.6379,80.4696 118.3229,81.0996 C118.1429,81.5046 117.9629,81.6846 117.5129,81.6846 C117.1979,81.6846 116.8829,81.5946 116.5679,81.4596 C114.3179,80.6046 111.8429,80.3346 109.4129,80.3346 C108.8279,80.3346 108.2879,80.3796 107.7029,80.3796 C106.8039,80.3796 106.5779,80.1546 106.5779,79.3896 C106.5779,75.5196 107.3889,75.7896 109.5029,75.7896 M104.0139,90.3246 C105.9929,92.5286 109.4129,92.9346 112.1579,92.9346 C114.4979,92.9346 116.3429,92.7086 118.5479,92.0346 C118.6829,91.9886 118.8629,91.9436 118.9979,91.9436 C119.7629,91.9436 119.7629,92.9786 119.7629,94.7786 C119.7629,95.6786 119.8079,96.7136 119.2679,97.0286 C118.4579,97.3886 113.3729,97.6136 112.2479,97.6136 C109.2779,97.6136 105.1389,97.2536 102.6179,95.5886 C101.8989,95.0936 100.4139,93.9686 100.4139,93.0236 C100.4139,92.3496 102.4829,89.6936 103.2029,89.6936 C103.5189,89.6936 103.8339,90.0996 104.0139,90.3246 M104.6439,61.3006 C105.0489,61.4356 106.3089,61.7496 106.3089,62.2456 C106.3089,62.4706 106.0379,62.6046 105.9029,62.6956 C105.2289,63.1006 105.1839,63.2806 104.8679,64.2696 C104.7329,64.7656 103.7879,68.0496 103.7879,68.2746 C103.7879,68.6796 104.1039,68.9496 104.4639,68.9496 C105.2739,68.9496 108.7829,67.6446 109.6839,67.2856 C109.9979,67.1496 110.3139,67.0606 110.6279,67.0606 C111.5279,67.0606 111.5279,69.8046 111.5279,70.4796 C111.5279,71.2446 111.4389,71.8746 110.6729,72.0996 C108.4689,72.8196 105.5889,73.4046 103.2939,73.8546 C101.9879,74.1246 101.8539,74.3496 101.4479,75.6096 C99.4239,81.6846 96.0939,89.8736 93.0789,95.4536 C92.4939,96.5336 92.1339,97.1636 91.4589,97.1636 C90.7389,97.1636 87.6339,95.7236 87.6339,94.7336 C87.6339,94.2836 88.1289,93.6086 88.3989,93.2486 C91.2339,89.1996 94.6089,81.3696 96.3639,76.5996 C96.4539,76.3296 96.7239,75.6546 96.7239,75.4296 C96.7239,74.9796 96.3639,74.7546 95.9139,74.7546 C95.2839,74.7546 93.3039,74.9796 91.9089,74.9796 C91.0089,74.9796 90.2889,75.0246 90.0199,74.1696 C89.8389,73.5846 89.6589,71.5596 89.6589,70.8846 C89.6589,70.3896 89.7939,70.0746 90.3339,70.0746 C90.7389,70.0746 92.6289,70.2546 94.5639,70.2546 C97.4429,70.2546 98.1189,70.2096 98.5239,69.5346 C99.0639,68.6346 100.1439,62.6506 100.1889,61.3456 C100.2329,60.6706 100.2329,60.2206 100.6839,60.2206 C101.0889,60.2206 104.0589,61.1206 104.6439,61.3006" id="Fill-119"></path>
                <path d="M136.3691,81.1895 C139.6991,74.5745 141.8141,71.3795 145.7741,65.3055 C146.4491,64.2255 147.0341,63.2805 147.6191,62.2005 C147.7541,61.9755 147.9781,61.5255 148.2941,61.5255 C148.6991,61.5255 150.3641,62.8755 150.8131,63.2355 C151.2641,63.5505 152.8841,64.6755 152.8841,65.1695 C152.8841,65.6655 152.4781,65.8455 152.0741,65.8905 C151.5791,65.9805 151.2641,66.1155 150.9041,66.4755 C150.0041,67.4645 148.8341,69.0855 148.0691,70.1655 C147.4381,71.0205 143.5241,76.7345 143.5241,77.3645 C143.5241,77.5895 143.7491,77.8145 143.9731,77.8145 C144.2441,77.8145 144.5581,77.6345 144.7841,77.4995 C146.2681,76.6895 147.8441,75.9695 149.5541,75.9695 C151.3531,75.9695 153.5581,76.9145 154.3231,78.6245 C154.6831,79.4795 154.8181,80.5145 154.8181,81.4595 C154.8181,82.9445 154.5041,84.3845 154.2331,85.8245 C153.9641,87.0395 153.5141,89.0645 153.5141,90.2335 C153.5141,90.9995 153.7841,91.9435 154.6831,91.9435 C157.2031,91.9435 161.4781,86.4995 162.8731,84.5195 C163.0981,84.2495 163.4131,83.8895 163.7731,83.8895 C164.5831,83.8895 166.1131,87.4445 166.1131,88.0745 C166.1131,88.4345 165.8431,88.7935 165.6181,89.0645 C164.5831,90.0995 163.5481,91.1335 162.4691,92.1245 C159.9931,94.3745 156.9331,96.8485 153.4241,96.8485 C150.2281,96.8485 148.9241,94.1045 148.9241,91.2695 C148.9241,89.5145 149.1941,87.7595 149.5091,86.0495 C149.7331,84.8345 150.0041,83.6195 150.0041,82.4045 C150.0041,81.2345 149.5981,80.3345 148.2941,80.3345 C146.9891,80.3345 145.5041,80.9645 144.4241,81.5945 C142.5341,82.6295 141.0941,83.9345 139.8341,85.6895 C138.0341,88.1195 136.4591,92.2135 135.6941,95.1385 C135.5591,95.7235 135.4701,96.5335 134.7041,96.5335 C133.9841,96.5335 130.3851,95.2295 130.3851,94.4635 C130.3851,94.4185 131.1491,92.5735 131.1941,92.4835 C132.8591,88.7045 134.5241,84.9245 136.3691,81.1895" id="Fill-120"></path>
                <path d="M197.6133,66.4751 C198.5583,66.4751 200.7633,66.4751 201.6643,66.3851 C201.8433,66.3851 202.3393,66.2951 202.4733,66.2951 C203.5533,66.2951 205.4883,68.7251 205.4883,69.1751 C205.4883,69.6251 205.0833,70.1201 204.7233,72.0551 C203.1933,80.7391 199.9993,86.7241 192.7093,91.8541 C190.0983,93.6541 187.0393,95.3191 184.0693,96.4441 C183.6193,96.6241 183.0343,96.8491 182.5843,96.8491 C181.5053,96.8491 179.8843,93.8341 179.8843,93.1141 C179.8843,92.6191 180.2893,92.4841 180.6943,92.3941 C184.6093,91.3591 188.8393,88.9741 191.8993,86.4541 C195.8583,83.1691 198.6033,78.3991 199.2783,73.3151 C199.3233,73.0451 199.3693,72.5051 199.3693,72.2351 C199.3693,71.3801 198.6033,71.2901 197.7943,71.2901 L181.8193,71.2901 C179.9293,71.2901 178.0853,71.3801 176.1943,71.3801 C174.8003,71.3801 174.8443,70.9751 174.8443,68.9501 C174.8443,66.8801 174.8003,66.3851 176.0593,66.3851 C177.9943,66.3851 179.9293,66.4751 181.8643,66.4751 L197.6133,66.4751 Z" id="Fill-121"></path>
                <path d="M241.7588,76.4194 C241.7588,79.6144 241.7138,82.8094 241.2638,86.0044 C240.6788,90.2784 239.1488,93.6534 235.7738,96.4434 C235.0088,97.0734 231.6338,99.5934 230.8238,99.5934 C230.1488,99.5934 227.0438,97.3434 227.0438,96.5334 C227.0438,96.1284 227.8998,95.7694 228.2588,95.5884 C232.6688,93.2944 235.5038,90.7294 236.2688,85.6444 C236.7188,82.7644 236.8088,79.8394 236.8088,76.9594 L236.8088,67.1944 C236.8088,66.1604 236.8088,65.1254 236.6738,64.0904 C236.6288,63.8654 236.5838,63.5504 236.5838,63.3254 C236.5838,62.9654 236.7638,62.8754 237.1238,62.8754 C237.8888,62.8754 240.7238,63.1454 241.5778,63.3254 C241.9388,63.4154 242.4788,63.4604 242.4788,63.8654 C242.4788,64.1354 242.2988,64.2704 242.0728,64.4954 C241.8038,64.7654 241.7588,65.7104 241.7588,66.4304 L241.7588,76.4194 Z M224.1188,78.1744 C224.1188,80.1994 224.2088,82.2694 224.2088,84.2944 C224.2088,85.6894 223.8038,85.8694 221.6898,85.8694 C219.5738,85.8694 218.9888,85.7344 218.9888,84.5194 C218.9888,82.4044 219.1238,80.3344 219.1238,78.2194 L219.1238,68.7254 C219.1238,67.5094 219.0338,66.3394 218.9888,65.1694 C218.9888,64.8994 218.9448,64.6294 218.9448,64.3594 C218.9448,64.0444 219.0338,63.9104 219.3498,63.9104 C219.7988,63.9104 222.5888,64.3154 223.2188,64.4054 C224.1638,64.5854 224.7938,64.5854 224.7938,64.9904 C224.7938,65.1694 224.6588,65.3504 224.5698,65.4844 C224.1638,66.0244 224.0738,66.7004 224.0738,68.0944 C224.0738,68.7704 224.1188,69.5804 224.1188,70.6144 L224.1188,78.1744 Z" id="Fill-122"></path>
                <path d="M285.083,68.3335 C285.976,68.3335 286.963,68.3335 287.715,68.1925 C287.855,68.1455 288.044,68.1455 288.185,68.1455 C289.124,68.1455 291.475,71.1065 291.475,71.6705 C291.475,71.9525 290.816,72.5635 290.018,73.2685 C289.595,73.6445 289.172,74.0205 288.748,74.4435 C284.754,78.3905 280.618,82.2915 276.294,85.9105 C275.871,86.2865 275.401,86.6625 275.401,87.2735 C275.401,87.7905 275.824,88.2135 276.106,88.6365 C276.436,89.1065 277.845,91.0805 277.845,91.5025 C277.845,92.3955 274.932,94.2755 273.944,94.2755 C273.475,94.2755 273.192,93.8055 273.005,93.4295 C270.701,89.7175 267.741,86.1455 264.498,83.2785 C264.216,82.9965 263.605,82.4795 263.605,82.0565 C263.605,81.3515 266.143,79.2365 267.083,79.2365 C267.788,79.2365 270.138,81.6335 270.749,82.2445 C271.125,82.6205 271.406,82.9495 271.971,82.9495 C272.44,82.9495 272.77,82.7145 273.099,82.4325 C275.119,80.7405 277.093,79.0015 278.973,77.2155 C279.49,76.7465 281.934,74.4905 281.934,73.9265 C281.934,73.2685 281.088,73.3155 280.195,73.3155 L260.456,73.3155 C258.389,73.3155 256.038,73.4565 254.44,73.4565 C253.172,73.4565 253.219,72.5165 253.219,71.2005 C253.219,68.7565 253.172,68.2395 254.347,68.2395 C256.414,68.2395 258.436,68.3335 260.456,68.3335 L285.083,68.3335 Z" id="Fill-123"></path>
                <path d="M312.0703,89.9639 C311.8003,89.9639 311.7103,90.1889 311.6653,90.4589 L311.6653,93.2039 C311.6653,95.0939 311.8003,97.0289 311.8003,98.9189 C311.8003,100.1789 311.1703,100.4039 309.3703,100.4039 C307.4353,100.4039 306.9853,100.0439 306.9853,98.7839 C306.9853,96.9389 307.0753,95.0489 307.0753,93.2039 L307.0753,79.7949 C307.0753,79.5689 306.9853,79.3449 306.7603,79.3449 C306.5803,79.3449 306.4903,79.4349 306.4003,79.5249 C305.9953,80.1099 304.6453,82.0449 303.9703,82.0449 C303.2063,82.0449 301.4513,79.1649 301.4513,78.4439 C301.4513,78.0399 301.7653,77.7249 302.0363,77.4099 C305.6353,73.0899 309.1453,66.5649 310.3603,61.0299 C310.4503,60.6709 310.4953,60.1309 310.9903,60.1309 C311.3953,60.1309 313.5553,60.8949 314.0943,61.0749 C315.2193,61.4799 316.0753,61.7049 316.0753,62.2899 C316.0753,62.6949 315.6253,62.9199 315.3103,63.0099 C314.5453,63.2799 314.5003,63.5049 314.1853,64.4049 C313.4653,66.3849 312.0253,69.6699 311.1253,71.5149 C311.0803,71.6499 311.0803,71.7399 311.0803,71.8299 C311.0803,72.1449 311.3053,72.3249 311.5753,72.3699 C312.0703,72.4599 312.6103,72.5049 312.6103,73.0899 C312.6103,73.4499 312.4303,73.5399 312.1603,73.7199 C311.6203,74.1699 311.6653,75.0249 311.6653,77.8149 L311.6653,86.9939 C311.7103,87.3089 311.8003,87.5339 312.1603,87.5339 C312.2953,87.5339 312.4303,87.4439 312.5653,87.3539 C316.7053,83.5739 319.9003,79.6599 322.4653,74.6649 C322.5543,74.5299 322.5993,74.4399 322.5993,74.2599 C322.5993,73.6299 321.9243,73.5849 321.7453,73.5849 L319.4503,73.5849 C317.8753,73.5849 316.3443,73.6749 314.7703,73.6749 C313.6903,73.6749 313.7353,73.0899 313.7353,71.4249 C313.7353,69.7599 313.6453,69.1299 314.7703,69.1299 C316.3443,69.1299 317.8753,69.2199 319.4503,69.2199 L323.4553,69.2199 C324.3543,69.2199 324.7153,68.8599 324.7153,67.9599 L324.7153,64.2699 C324.7153,63.1449 324.7153,62.1099 324.5803,61.2559 C324.5353,61.1199 324.5353,60.8499 324.5353,60.7149 C324.5353,60.1749 324.8943,60.0859 325.3443,60.0859 C326.0193,60.0859 328.7643,60.3559 329.5743,60.4009 C329.8893,60.4449 330.2503,60.4899 330.2503,60.9409 C330.2503,61.2559 329.9793,61.3449 329.7103,61.6149 C329.2153,62.0199 329.1703,63.0549 329.1703,64.6749 L329.1703,67.9599 C329.2593,68.8599 329.5743,69.2199 330.4293,69.2199 L335.8293,69.2199 C337.4043,69.2199 338.9343,69.1299 340.5083,69.1299 C341.5893,69.1299 341.5443,69.7149 341.5443,71.4249 C341.5443,73.1349 341.5893,73.6749 340.5083,73.6749 C338.9343,73.6749 337.4043,73.5849 335.8293,73.5849 L332.0493,73.5849 C331.6443,73.6299 331.2843,73.7649 331.2843,74.2149 C331.2843,74.3949 331.3293,74.4849 331.4203,74.6199 C334.4793,79.6139 337.3593,83.1699 341.8143,86.9939 C342.1293,87.2639 342.4893,87.5789 342.4893,87.9849 C342.4893,88.7489 340.7343,91.2239 339.7893,91.2239 C339.2493,91.2239 338.8893,90.7739 336.8193,88.7039 C334.0743,85.9589 331.7343,82.7639 329.7993,79.4349 C329.7103,79.3449 329.6193,79.2549 329.4843,79.2549 C329.3043,79.2549 329.2153,79.4799 329.1703,79.6599 L329.1703,87.5339 C329.2593,88.4339 329.5743,88.7939 330.4293,88.7939 C331.4653,88.8389 332.4543,88.7039 333.4443,88.7039 C334.7493,88.7039 334.7043,89.3789 334.7043,90.9539 C334.7043,92.5289 334.7493,93.2039 333.4893,93.2039 C332.4543,93.2039 331.4653,93.0689 330.4293,93.1139 C329.6193,93.1139 329.2153,93.4289 329.2153,94.2839 C329.2153,95.8589 329.3043,97.4339 329.3043,98.9639 C329.3043,100.3139 328.8093,100.3589 327.0093,100.3589 C325.0753,100.3589 324.6253,100.3139 324.6253,98.9639 C324.6253,97.4339 324.7153,95.8589 324.7153,94.3289 C324.7153,93.4289 324.3093,93.1139 323.4553,93.1139 C322.3753,93.0689 321.2953,93.2039 320.2153,93.2039 C318.9553,93.2039 319.0003,92.5289 319.0003,90.9539 C319.0003,89.4239 318.9553,88.7039 320.2153,88.7039 C321.2953,88.7039 322.3753,88.8389 323.4553,88.7939 C324.3543,88.7939 324.7153,88.4339 324.7153,87.5339 L324.7153,79.9749 C324.7153,79.7499 324.6253,79.6139 324.4443,79.6139 C324.3093,79.6139 324.2193,79.6599 324.1303,79.7949 C321.7003,83.9799 319.2243,86.9939 315.7593,90.4589 C315.4003,90.8189 314.8153,91.4039 314.3203,91.4039 C313.7353,91.4039 312.8353,90.5489 312.4303,90.1439 C312.3403,90.0539 312.2053,89.9639 312.0703,89.9639" id="Fill-124"></path>
                <path d="M381.7295,84.2495 L383.0345,84.2495 C383.8885,84.2495 384.2495,83.8895 384.2495,83.0345 L384.2495,81.6395 C384.2495,80.7845 383.8885,80.3795 383.0345,80.3795 L381.9545,80.3795 C381.1445,80.3795 380.7395,80.7395 380.6945,81.5495 C380.6495,82.0445 380.6495,82.5845 380.6045,83.0795 C380.6045,83.8895 380.9185,84.2495 381.7295,84.2495 Z M381.9545,70.8845 C382.1785,70.8395 382.4495,70.7055 382.4495,70.4355 C382.4495,70.2545 382.3595,70.1195 382.2695,70.0295 C381.0535,68.8145 379.8835,67.5095 378.8495,66.1605 C378.6685,65.9355 378.4895,65.7545 378.1285,65.7545 C377.8595,65.7545 377.6335,65.9355 377.4545,66.1605 C376.4185,67.5095 375.3395,68.7705 374.1685,69.9845 C374.0345,70.1195 373.9895,70.2095 373.9895,70.3895 C373.9895,70.7055 374.2595,70.8395 374.5295,70.8845 L381.9545,70.8845 Z M374.2145,80.3795 C373.3595,80.3795 372.9545,80.7845 372.9545,81.6395 L372.9545,83.0345 C372.9545,83.8895 373.3595,84.2495 374.2145,84.2495 L374.9345,84.2495 C375.7895,84.2495 376.2395,83.9795 376.3295,83.1245 C376.4185,82.5845 376.4185,82.0895 376.4185,81.5945 C376.4185,80.7395 376.0145,80.3795 375.2045,80.3795 L374.2145,80.3795 Z M360.9855,91.4495 C360.3545,91.4495 360.3545,90.9545 359.9955,89.2445 C359.8155,88.2995 359.5005,87.3985 359.1845,86.4545 C359.1395,86.2745 359.0495,86.0945 359.0495,85.8695 C359.0495,85.3295 360.0405,84.9695 360.4905,84.9695 C360.9855,84.9695 361.2095,85.2395 361.8395,87.4445 C361.9745,87.9385 362.5145,89.8745 362.5145,90.2335 C362.5145,90.9995 361.4795,91.4495 360.9855,91.4495 Z M357.7905,93.6085 C357.2055,93.6085 357.1155,93.1585 356.8895,91.6285 C356.7095,90.6395 356.5305,89.2445 356.0805,87.2645 C356.0355,87.1295 355.9905,86.9495 355.9905,86.8135 C355.9905,86.1845 356.8895,85.8695 357.3845,85.8695 C357.9695,85.8695 358.1955,86.3645 358.7805,89.0635 C358.9155,89.6935 359.3655,91.7645 359.3655,92.3035 C359.3655,93.2495 358.4195,93.6085 357.7905,93.6085 Z M356.4405,77.0945 C355.6295,77.1845 355.2705,77.5895 355.1805,78.3545 L355.1805,78.8945 C355.2705,79.6595 355.6295,80.0645 356.4405,80.1545 L357.4295,80.1545 C358.1955,80.0645 358.6455,79.6595 358.6455,78.8945 L358.6455,78.3545 C358.6455,77.5895 358.1955,77.1845 357.4295,77.0945 L356.4405,77.0945 Z M356.2595,71.1095 C355.6295,71.1095 355.1805,71.5595 355.1805,72.1895 L355.1805,72.8195 C355.1805,73.4495 355.6295,73.8995 356.2595,73.8995 L357.6105,73.8995 C358.2405,73.8995 358.6455,73.4495 358.6455,72.8195 L358.6455,72.1895 C358.6455,71.5595 358.2405,71.1095 357.6105,71.1095 L356.2595,71.1095 Z M358.6455,66.2055 C358.6455,65.5755 358.2405,65.1245 357.6105,65.1245 L356.2595,65.1245 C355.6295,65.1245 355.1805,65.5755 355.1805,66.2055 L355.1805,66.7905 C355.1805,67.4645 355.6295,67.8705 356.2595,67.8705 L357.6105,67.8705 C358.2405,67.8705 358.6455,67.4645 358.6455,66.7905 L358.6455,66.2055 Z M354.5045,95.5885 C353.6955,95.5885 353.6955,95.0035 353.6505,94.4185 C353.5605,92.3495 353.3345,90.3245 353.0205,88.2995 C352.9755,88.0745 352.9755,87.8495 352.9755,87.6245 C352.9755,86.9495 353.9195,86.7695 354.3255,86.7695 C355.1345,86.7695 355.2255,87.4445 355.5845,90.1445 C355.7195,90.9995 355.9905,93.6535 355.9905,94.4185 C355.9905,95.3635 355.0895,95.5885 354.5045,95.5885 Z M371.0645,72.9545 C370.9295,72.9545 370.8845,72.9995 370.7945,73.0445 C370.2995,73.4495 368.8595,74.6195 368.2745,74.6195 C367.3305,74.6195 365.5295,72.4595 365.5755,71.4695 C365.5755,71.3345 365.5755,71.1995 365.3945,71.1545 C364.7195,71.1545 364.0445,71.1095 363.3705,71.1095 C362.6045,71.1545 362.2905,71.4245 362.2905,72.1895 L362.2905,72.8195 C362.2905,73.5845 362.6045,73.8995 363.3705,73.8995 C364.4505,73.9445 365.5295,73.8095 366.1605,73.8095 C367.0145,73.8095 367.0145,74.2595 367.0145,75.5195 C367.0145,76.6445 367.0145,77.1845 366.2055,77.1845 C365.7095,77.1845 364.4505,77.0945 363.5495,77.0945 C362.6495,77.0945 362.2905,77.4995 362.2905,78.3545 L362.2905,78.8945 C362.2905,79.7045 362.6045,80.1095 363.4595,80.1095 C364.0445,80.1095 364.5845,80.0645 365.1695,80.0645 C367.3305,80.0645 367.3755,81.0545 367.3755,82.5395 C367.3755,86.0045 366.7005,93.1585 365.4395,96.3085 C364.1345,99.6385 362.1555,100.1785 358.8255,100.1785 C357.5205,100.1785 356.4855,99.8185 356.4855,97.3435 C356.4855,96.3085 356.6655,95.7235 357.2945,95.7235 C357.5205,95.7235 358.4195,95.8135 359.2305,95.8135 C361.2545,95.8135 361.7505,95.3635 362.2905,92.9785 C362.7855,90.9095 363.2805,87.1295 363.2805,85.0145 C363.2805,83.6645 362.4695,83.7995 361.2095,83.7995 L355.9905,83.7995 C355.5845,83.8445 355.3605,84.1595 355.1345,84.4745 C354.8655,84.7445 354.5495,84.7895 353.7855,84.7895 L353.1555,84.7895 C351.5355,84.7895 351.0845,84.8345 351.0845,83.8895 C351.0845,82.4495 351.1295,81.0095 351.1295,79.6145 L351.1295,66.9245 C351.1295,65.7995 351.0845,64.6755 351.0845,63.5045 C351.0845,61.7055 351.9855,61.2555 353.6955,61.2555 C354.7755,61.2555 355.8555,61.3005 356.9355,61.3005 L364.4505,61.3005 C365.4395,61.3005 366.3845,61.2555 367.1945,61.2555 C368.1845,61.2555 368.1845,61.7055 368.1845,63.1895 C368.1845,64.7205 368.1845,65.2145 367.2395,65.2145 C366.2945,65.2145 365.3945,65.1245 364.4505,65.1245 L363.3705,65.1245 C362.6045,65.1245 362.2905,65.4395 362.2905,66.2055 L362.2905,66.7905 C362.2905,67.5555 362.6045,67.8705 363.3705,67.8705 C364.2695,67.9155 365.3495,67.7795 366.1605,67.7795 C367.0595,67.7795 366.9695,68.3195 367.0145,69.1745 C367.0595,69.4445 367.1945,69.7145 367.5095,69.7145 C367.6445,69.7145 367.7345,69.6695 367.8705,69.5805 C371.0645,67.1945 374.2595,63.9105 376.1495,60.4005 C376.4185,59.9055 376.5995,59.5905 377.0035,59.5905 C377.4995,59.5905 379.1645,60.2655 379.7495,60.4905 C380.6945,60.8055 381.4585,60.9855 381.4585,61.5705 C381.4585,61.7495 381.3245,61.8855 381.1445,61.9755 C381.0085,62.0205 380.9185,62.1105 380.9185,62.2455 C380.9185,62.3345 380.9185,62.3805 380.9635,62.4255 C383.4845,65.7095 386.7235,68.3195 390.0535,70.6595 C390.3695,70.8845 390.8185,71.1995 390.8185,71.6045 C390.8185,72.5495 389.1995,74.5295 388.1645,74.5295 C387.5345,74.5295 386.4095,73.5845 385.9145,73.1795 C385.8245,73.1345 385.7795,73.0895 385.6885,73.0895 C385.4635,73.0895 385.4185,73.2695 385.3745,73.4495 C385.2845,74.0345 385.1945,74.3495 384.3835,74.3495 C383.6645,74.3495 382.4945,74.3045 381.7745,74.3045 C381.0085,74.3495 380.6945,74.6195 380.6945,75.3395 L380.6945,75.7895 C380.6945,76.5095 381.0085,76.8245 381.7745,76.8245 L382.9895,76.8245 C383.9335,76.8245 384.8335,76.7795 385.7345,76.7795 C387.2185,76.7795 388.3885,77.0495 388.3885,78.7595 C388.3885,79.5245 388.3435,80.2895 388.3435,81.0545 L388.3435,84.3395 C388.3435,85.2395 388.3885,86.1395 388.3885,87.0395 C388.3885,88.4785 387.4445,88.3895 386.3195,88.3895 C385.7345,88.3895 385.1945,88.4345 384.6545,88.1645 C384.4285,88.0745 384.0695,87.8495 383.8435,87.8045 L382.4945,87.8045 C382.0885,87.8495 381.6845,87.9845 381.6845,88.4345 C381.6845,88.6145 381.7745,88.7495 381.8195,88.8845 C383.6195,91.8095 386.2735,94.3745 389.1535,96.2185 C389.5585,96.4435 390.4145,96.9385 390.4145,97.3885 C390.4145,98.1985 388.5235,100.2685 387.5345,100.2685 C386.8595,100.2685 385.2395,98.9635 384.6995,98.5135 C382.5395,96.8035 380.5595,94.5535 379.1645,92.2135 C379.0295,92.0345 378.8495,91.8535 378.5795,91.8535 C378.2645,91.8535 378.0835,91.9885 377.9495,92.2135 C375.1145,96.6685 369.6695,100.4935 368.5895,100.4935 C367.6445,100.4935 365.8895,98.2435 365.8895,97.3885 C365.8895,96.8935 366.3845,96.6245 366.7455,96.4435 C370.1195,94.6445 373.1345,92.3035 374.8895,88.8845 C374.9345,88.7495 374.9795,88.6595 374.9795,88.5235 C374.9795,87.9845 374.5295,87.8495 374.1245,87.8045 L373.4045,87.8045 C373.1795,87.8495 372.8195,88.0745 372.5945,88.1645 C372.0545,88.4345 371.5145,88.3895 370.9295,88.3895 C369.7595,88.3895 368.8595,88.4345 368.8595,87.0395 C368.8595,86.1395 368.9045,85.2395 368.9045,84.3395 L368.9045,81.0545 C368.9045,80.2895 368.8595,79.5245 368.8595,78.8045 C368.8595,77.0045 370.0295,76.7795 371.5145,76.7795 C372.4595,76.7795 373.3595,76.8245 374.2595,76.8245 L375.3845,76.8245 C376.0595,76.8245 376.4635,76.5545 376.4635,75.8345 L376.4635,75.2945 C376.3745,74.5745 376.0595,74.3045 375.3845,74.3045 C374.3945,74.3045 373.4045,74.3495 372.4145,74.3495 C371.6045,74.3495 371.4695,74.0345 371.4245,73.4045 C371.3795,73.1795 371.2895,72.9545 371.0645,72.9545 Z M352.3005,88.2535 C351.9405,88.4345 352.0305,88.6595 351.9855,89.6035 C351.8955,91.4035 351.7605,93.2495 351.5355,95.0485 C351.4455,95.9485 351.4005,96.7585 350.5005,96.7585 C350.0055,96.7585 348.9255,96.5785 348.9255,95.9485 C348.9255,95.7695 348.9255,95.5885 348.9705,95.4085 C349.4205,93.0685 349.6905,90.7735 349.6905,88.4345 L349.6905,87.4445 C349.6905,87.0835 349.8255,86.8135 350.2305,86.8135 C350.5445,86.8135 352.8855,87.0835 352.8855,87.6245 C352.8855,88.0295 352.5705,88.1195 352.3005,88.2535 Z" id="Fill-125"></path>
                <path d="M405.6621,88.4429 C404.4121,88.4429 404.1621,88.1929 404.1121,86.9429 L403.7621,74.2919 C403.6621,71.2919 403.3121,64.5919 403.3121,63.5919 C403.3121,62.7419 403.6121,62.5419 404.7121,62.5419 L408.2121,62.5419 C409.3121,62.5419 409.6121,62.7419 409.6121,63.5919 C409.6121,64.5919 409.2631,71.2919 409.1621,74.5919 L408.8621,86.9429 C408.8121,88.1929 408.5621,88.4429 407.3121,88.4429 L405.6621,88.4429 Z M410.1621,95.7939 C410.1621,97.8439 408.8121,99.6439 406.2631,99.6439 C404.2621,99.6439 402.8111,98.2939 402.8111,96.3439 C402.8111,94.1439 404.2121,92.3429 406.6621,92.3429 C408.6621,92.3429 410.1621,93.7429 410.1621,95.7939 Z" id="Fill-126"></path>
                <path d="M86.6914,0.5142 C87.5914,0.5142 88.4464,0.3792 89.3464,0.3792 C90.2914,0.3792 90.5614,0.7842 90.5614,1.6842 C90.5614,2.7192 90.2464,3.0792 89.2564,3.0792 C88.4914,3.0792 87.6364,2.9442 86.6914,2.9442 L79.3124,2.9442 C77.8274,2.9442 77.6024,3.3942 77.6024,4.7892 L77.6024,25.1082 C77.6024,26.6822 77.6914,28.2582 77.6914,29.8322 C77.6914,30.9122 77.4214,31.3172 76.2964,31.3172 C75.1714,31.3172 74.9014,30.9122 74.9014,29.8322 C74.9014,28.2582 75.0374,26.6822 75.0374,25.1082 L75.0374,6.6342 C75.0374,5.3292 74.9924,4.0242 74.9924,2.7192 C74.9924,1.0992 75.4414,0.4242 77.1074,0.4242 C77.5574,0.4242 77.8724,0.5142 78.5914,0.5142 L86.6914,0.5142 Z" id="Fill-127"></path>
                <path d="M116.1348,15.8423 C117.6388,12.9753 119.5658,8.3693 119.9418,5.2203 C119.9888,4.8443 120.0348,4.1873 120.4588,4.1873 C120.8818,4.1873 123.0428,4.9863 123.7478,5.2683 C124.6408,5.5963 126.2388,6.1603 126.2388,6.6773 C126.2388,6.9593 125.9568,7.1483 125.7218,7.2883 C125.0168,7.7593 124.9228,8.1343 124.6408,8.9333 C123.4668,12.3173 121.8218,16.0303 120.1298,19.1793 C119.9888,19.4613 119.8478,19.6963 119.8478,20.0253 C119.8478,20.6353 120.2708,20.9653 120.7398,21.3413 C121.3518,21.8113 124.2178,24.0673 124.2178,24.6773 C124.2178,25.5233 122.0558,28.4843 121.1628,28.4843 C120.6938,28.4843 120.2708,28.0613 119.9888,27.7793 C119.3778,27.1213 117.4978,25.1953 116.6988,25.1953 C116.1348,25.1953 115.8528,25.5713 115.5238,25.9463 C113.0798,28.9543 110.3538,31.4453 107.1578,33.6543 C106.0308,34.4533 100.7198,37.6963 99.5918,37.6963 C98.5578,37.6963 96.2548,34.8293 96.2548,34.1713 C96.2548,33.6073 97.0068,33.3253 97.6178,33.0903 C97.7588,33.0433 97.8998,32.9963 97.9938,32.9493 C103.0228,30.8813 107.4878,27.6853 111.0118,23.5503 C111.2938,23.2203 111.7638,22.7033 111.7638,22.2343 C111.7638,21.8113 111.5288,21.4823 111.1528,21.2943 C109.5548,20.4013 107.2998,19.6963 105.5608,19.0853 C105.0908,18.9443 104.5728,18.7093 104.5728,18.1453 C104.5728,17.6283 105.7478,14.3853 106.9698,14.3853 C108.0978,14.3853 112.6568,16.4533 113.8788,17.0643 C114.1608,17.1583 114.3018,17.2523 114.5838,17.2523 C115.5238,17.2523 115.7588,16.5003 116.1348,15.8423" id="Fill-128"></path>
                <path d="M160.7856,26.0874 C160.7856,27.5444 160.8326,28.2494 161.5376,28.2494 C163.0886,28.2494 172.3466,19.9784 173.8506,18.4274 C174.0856,18.1914 174.4146,17.8164 174.7906,17.8164 C175.5896,17.8164 177.1876,20.8234 177.1876,21.5754 C177.1876,22.2804 175.3546,23.7844 174.7436,24.3014 C171.9236,26.7454 169.1036,29.1424 166.1436,31.3514 C164.8746,32.3384 162.8536,33.8424 161.7256,34.8294 C161.3026,35.1574 160.8326,35.6744 160.2686,35.6744 C159.6576,35.6744 157.6366,34.6414 157.0256,34.2654 C156.3686,33.8894 155.5216,33.4194 155.5216,32.5734 C155.5216,32.2444 155.7096,29.1894 155.7096,26.9334 L155.7096,10.4844 C155.7096,8.8864 155.7096,7.2884 155.5216,5.6914 L155.5216,5.4554 C155.5216,5.1274 155.7096,4.9854 155.9926,4.9854 C156.2736,4.9854 157.4486,5.1734 157.8246,5.2204 C160.2686,5.5494 161.6316,5.6914 161.6316,6.2074 C161.6316,6.5364 161.4436,6.6304 161.2556,6.8654 C160.9266,7.1944 160.8796,7.6174 160.8326,8.0874 C160.7856,9.1684 160.7856,11.5184 160.7856,12.6934 L160.7856,26.0874 Z M149.6476,6.4424 C150.2116,6.5364 150.8226,6.5364 150.8226,7.0064 C150.8226,7.2414 150.5396,7.4764 150.3526,7.6644 C150.0706,7.9464 150.1176,8.7454 150.1176,9.1684 L150.1176,10.2024 C150.1176,19.9314 149.4596,28.2024 141.9866,35.3464 C141.6106,35.6744 141.0466,36.3334 140.5296,36.3334 C139.8256,36.3334 136.3476,34.5944 136.3476,33.7484 C136.3476,33.4194 136.7236,33.0904 136.9576,32.9014 C144.1016,26.9804 144.9946,20.4004 144.9946,11.6594 C144.9946,10.2494 144.9476,8.3694 144.8066,7.0064 C144.8066,6.8654 144.7596,6.6304 144.7596,6.4894 C144.7596,6.0664 145.0416,5.9724 145.3706,5.9724 C146.2636,5.9724 148.6606,6.3014 149.6476,6.4424 Z" id="Fill-129"></path>
                <path d="M198.8657,11.6289 C199.5407,11.6289 200.0807,11.1339 200.2157,10.4589 C200.3057,9.5589 200.5307,4.7439 200.5757,3.6639 C200.5757,3.2139 200.5307,2.6289 201.1607,2.6289 C201.4307,2.6289 205.3907,3.3939 205.8397,3.5289 C206.1107,3.5739 206.5147,3.7089 206.5147,4.0239 C206.5147,4.2939 206.1997,4.6089 206.0207,4.7889 C205.4807,5.2839 205.5257,5.3289 205.3907,6.7239 C205.2997,7.3539 205.0307,10.0539 205.0307,10.5039 C205.0307,11.1339 205.4807,11.5389 206.1107,11.5389 L210.4297,11.4939 C211.7357,11.4939 215.3347,11.3139 215.3797,11.3139 C216.3697,11.3139 217.9447,13.0239 217.9447,13.9239 C217.9447,14.3739 217.3147,19.3689 217.2247,20.2239 C216.7747,23.6889 216.0997,29.9429 214.7047,33.0029 C213.4907,35.6579 211.6447,36.5129 208.8557,36.9179 C207.9997,37.0529 207.0547,37.0979 206.2447,37.0979 C205.3447,37.0979 205.0747,36.9179 204.6697,36.1979 C204.2657,35.4779 203.4997,33.8129 203.4997,33.0479 C203.4997,32.5529 203.7707,32.2379 204.3107,32.2379 C204.7597,32.2379 205.7947,32.4179 206.8747,32.4179 C209.5307,32.4179 210.4747,31.2029 211.1507,28.0079 C211.6447,25.6229 212.4997,19.5939 212.4997,17.2539 C212.4997,16.0389 211.8697,16.1289 209.8447,16.1289 L205.2997,16.1739 C204.1747,16.1739 203.9947,17.1189 203.8607,17.7939 C202.4207,24.3629 199.5857,30.3029 195.0407,35.2979 C194.4107,35.9729 191.7107,38.8079 190.9007,38.8079 C190.0457,38.8079 187.4807,36.6929 187.4807,35.8829 C187.4807,35.5229 187.8417,35.2979 188.1117,35.0729 C192.4757,31.6529 195.9857,26.7029 197.8757,21.4829 C198.1907,20.6289 199.0457,17.9289 199.0457,17.1639 C199.0457,16.6239 198.6407,16.2189 198.1007,16.2189 L191.7557,16.2639 C190.5407,16.2639 187.8417,16.4439 187.2567,16.4439 C186.2657,16.4439 186.1317,15.7239 186.1317,13.9689 C186.1317,12.0339 186.2207,11.6289 187.2107,11.6289 C188.6967,11.6289 190.2257,11.6739 191.7107,11.6739 L198.8657,11.6289 Z" id="Fill-130"></path>
                <path d="M254.9346,17.5234 C254.9346,20.7184 254.8896,23.9134 254.4396,27.1084 C253.8546,31.3824 252.3246,34.7574 248.9496,37.5474 C248.1846,38.1774 244.8096,40.6974 243.9996,40.6974 C243.3246,40.6974 240.2196,38.4474 240.2196,37.6374 C240.2196,37.2324 241.0756,36.8734 241.4346,36.6924 C245.8446,34.3984 248.6796,31.8334 249.4446,26.7484 C249.8946,23.8684 249.9846,20.9434 249.9846,18.0634 L249.9846,8.2984 C249.9846,7.2644 249.9846,6.2294 249.8496,5.1944 C249.8046,4.9694 249.7596,4.6544 249.7596,4.4294 C249.7596,4.0694 249.9396,3.9794 250.2996,3.9794 C251.0646,3.9794 253.8996,4.2494 254.7536,4.4294 C255.1146,4.5194 255.6546,4.5644 255.6546,4.9694 C255.6546,5.2394 255.4746,5.3744 255.2486,5.5994 C254.9796,5.8694 254.9346,6.8144 254.9346,7.5344 L254.9346,17.5234 Z M237.2946,19.2784 C237.2946,21.3034 237.3846,23.3734 237.3846,25.3984 C237.3846,26.7934 236.9796,26.9734 234.8656,26.9734 C232.7496,26.9734 232.1646,26.8384 232.1646,25.6234 C232.1646,23.5084 232.2996,21.4384 232.2996,19.3234 L232.2996,9.8294 C232.2996,8.6134 232.2096,7.4434 232.1646,6.2734 C232.1646,6.0034 232.1206,5.7334 232.1206,5.4634 C232.1206,5.1484 232.2096,5.0144 232.5256,5.0144 C232.9746,5.0144 235.7646,5.4194 236.3946,5.5094 C237.3396,5.6894 237.9696,5.6894 237.9696,6.0944 C237.9696,6.2734 237.8346,6.4544 237.7456,6.5884 C237.3396,7.1284 237.2496,7.8044 237.2496,9.1984 C237.2496,9.8744 237.2946,10.6844 237.2946,11.7184 L237.2946,19.2784 Z" id="Fill-131"></path>
                <path d="M271.4512,42.1826 C270.5512,42.1826 269.6962,42.3176 268.7962,42.3176 C267.8502,42.3176 267.5812,41.9126 267.5812,41.0126 C267.5812,39.9776 267.8962,39.6176 268.8862,39.6176 C269.6512,39.6176 270.5062,39.7526 271.4512,39.7526 L278.8312,39.7526 C280.3152,39.7526 280.5412,39.3026 280.5412,37.9076 L280.5412,17.5886 C280.5412,16.0146 280.4502,14.4386 280.4502,12.8646 C280.4502,11.7846 280.7212,11.3796 281.8462,11.3796 C282.9712,11.3796 283.2402,11.7846 283.2402,12.8646 C283.2402,14.4386 283.1052,16.0146 283.1052,17.5886 L283.1052,36.0626 C283.1052,37.3676 283.1502,38.6726 283.1502,39.9776 C283.1502,41.5976 282.7002,42.2726 281.0352,42.2726 C280.5862,42.2726 280.2702,42.1826 279.5512,42.1826 L271.4512,42.1826 Z" id="Fill-132"></path>
                <path d="M340.0303,17.6138 C340.0303,18.2438 338.2753,19.5038 337.7353,19.5038 C337.4213,19.5038 337.2403,19.1438 337.0603,18.9188 C336.3413,17.8388 335.0363,16.1738 334.1353,15.1838 C334.0013,15.0488 333.8213,14.7788 333.8213,14.5988 C333.8213,14.0588 335.5763,12.8888 336.1163,12.8888 C336.5653,12.8888 340.0303,17.0738 340.0303,17.6138 M334.5863,20.0888 C334.5863,20.7638 332.7863,21.9788 332.2913,21.9788 C331.9753,21.9788 331.8413,21.6638 331.6613,21.4388 C330.7603,20.1338 329.7713,18.8738 328.7813,17.6588 C328.6463,17.5238 328.3763,17.2538 328.3763,17.0288 C328.3763,16.4888 330.1763,15.3638 330.6713,15.3638 C331.1663,15.3638 334.5863,19.5488 334.5863,20.0888 M304.7073,9.1088 C311.2763,8.7038 317.8463,8.0288 324.3713,7.2638 C327.7913,6.8588 331.2113,6.4088 334.5863,5.8688 C334.7653,5.8238 334.9913,5.8238 335.1713,5.8238 C335.8453,5.8238 335.9353,6.4088 336.0253,6.9488 C336.2063,7.7138 336.4303,9.4688 336.4303,10.2338 C336.4303,11.2238 335.4853,11.1338 334.4063,11.1788 C331.7963,11.2238 329.5013,11.2238 326.9363,12.1238 C323.4713,13.3838 321.0413,15.5888 319.2863,18.8288 C317.9813,21.2138 317.1273,24.0038 317.1273,26.7478 C317.1273,31.9678 320.4563,33.2278 325.0463,33.2278 C325.8113,33.2278 326.8013,33.1828 327.2963,33.1828 C327.9703,33.1828 328.3313,33.2278 328.3313,33.9478 C328.3313,34.8478 328.0153,36.8278 327.6563,37.6378 C327.3413,38.3128 326.9813,38.4028 326.2163,38.4028 C318.5663,38.4028 311.9973,35.9728 311.9973,27.1978 C311.9973,22.6088 313.8863,17.6588 316.9463,14.2838 C317.4413,13.7438 317.7123,13.4288 317.7123,13.2038 C317.7123,12.7988 317.3513,12.6638 317.0363,12.6638 C316.7213,12.6638 314.6513,13.0238 314.2013,13.0688 C311.1863,13.5188 307.1363,14.1488 304.2573,14.9138 C304.0323,14.9588 303.8063,15.0038 303.5823,15.0038 C302.9523,15.0038 302.7273,14.0138 302.5923,13.5188 C302.4123,12.7538 302.0963,11.0438 302.0963,10.2788 C302.0963,9.1088 302.7273,9.2438 304.7073,9.1088" id="Fill-133"></path>
            </g>
        </g>
    </g>
</svg>