<svg id="レイヤー_1" xmlns="http://www.w3.org/2000/svg" xmlns:xlink="http://www.w3.org/1999/xlink" viewBox="0 0 280 175"><style>.st0{fill:#bebebe}.st1{fill:#fff}.st2{fill:#eac384}.st3{fill:#00548c}.st4{fill:#cea05a}.st5,.st6,.st7{fill:#fff;stroke:#fff;stroke-width:.2475;stroke-linecap:round;stroke-linejoin:round;stroke-miterlimit:10}.st6,.st7{stroke-width:7.9192}.st7{fill:#00548c;stroke:#00548c;stroke-width:3.9596}.st8{fill:#eab963}.st9{fill:#f4b971}</style><path class="st0" d="M10.5 175c-.4 0-.7-.3-.7-.7v-22.6c0-.4.3-.7.7-.7s.7.3.7.7v22.6c.1.4-.2.7-.7.7z"/><path class="st0" d="M20.4 169.3c-.1 0-.3 0-.4-.1L.4 157.9c-.4-.2-.5-.7-.3-1 .2-.4.7-.5 1-.3L20.7 168c.4.2.5.7.3 1-.1.2-.4.3-.6.3z"/><path class="st0" d="M.7 169.3c-.3 0-.5-.1-.6-.4-.2-.4-.1-.8.3-1L20 156.6c.4-.2.8-.1 1 .3.2.4.1.8-.3 1L1.1 169.2c-.1.1-.2.1-.4.1zM10.5 156c-.2 0-.4-.1-.5-.2l-2.1-2.1c-.3-.3-.3-.8 0-1 .3-.3.8-.3 1 0l1.6 1.6 1.6-1.6c.3-.3.8-.3 1 0 .3.3.3.8 0 1l-2.1 2.1c-.1.2-.3.2-.5.2z"/><path class="st0" d="M10.5 161.1c-.2 0-.4-.1-.5-.2l-3.6-3.6c-.3-.3-.3-.8 0-1 .3-.3.8-.3 1 0l3 3 3-3c.3-.3.8-.3 1 0s.3.8 0 1l-3.6 3.6c.1.1-.1.2-.3.2zM7 169.8c-.2 0-.4-.1-.5-.2-.3-.3-.3-.8 0-1L10 165c.1-.1.3-.2.5-.2s.4.1.5.2l3.6 3.6c.3.3.3.8 0 1s-.8.3-1 0l-3-3-3 3c-.2.2-.4.2-.6.2z"/><path class="st0" d="M3.4 163.7c-.3 0-.6-.2-.7-.6-.1-.4.1-.8.5-.9l4.1-1.1-1-4.1c-.1-.4.1-.8.5-.9.4-.1.8.1.9.5l1.3 4.9c.1.2 0 .4-.1.6-.1.2-.3.3-.5.3l-4.9 1.3h-.1zM14.1 169.8c-.3 0-.6-.2-.7-.6l-1.3-4.9c-.1-.4.1-.8.5-.9l4.9-1.3c.4-.1.8.1.9.5.1.4-.1.8-.5.9l-4.1 1.1 1.1 4.1c.1.4-.1.8-.5.9-.2.2-.2.2-.3.2z"/><path class="st0" d="M7 169.8h-.2c-.4-.1-.6-.5-.5-.9l1.1-4.1-4.1-1.1c-.4-.1-.6-.5-.5-.9.1-.4.5-.6.9-.5l4.9 1.3c.4.1.6.5.5.9l-1.3 4.9c-.2.2-.5.4-.8.4zM17.7 163.7h-.2l-4.9-1.3c-.2-.1-.4-.2-.5-.3-.1-.2-.1-.4-.1-.6l1.3-4.9c.1-.4.5-.6.9-.5.4.1.6.5.5.9l-1.1 4.1 4.1 1.1c.4.1.6.5.5.9.1.4-.2.6-.5.6zM12.7 173.4c-.2 0-.4-.1-.5-.2l-1.6-1.6-1.6 1.6c-.3.3-.8.3-1 0-.3-.3-.3-.8 0-1l2-2.2c.3-.3.8-.3 1 0l2.1 2.1c.3.3.3.8 0 1-.1.2-.3.3-.4.3zM1.1 160.6c-.3 0-.6-.2-.7-.6-.1-.4.1-.8.5-.9l2.2-.6-.6-2.2c-.1-.4.1-.8.5-.9.4-.1.8.1.9.5l.8 2.9c.1.2 0 .4-.1.6-.1.2-.3.3-.5.3l-2.9.8c0 .1-.1.1-.1.1zM17.9 170.4c-.3 0-.6-.2-.7-.5l-.8-2.9c-.1-.2 0-.4.1-.6s.3-.3.5-.3l2.9-.8c.4-.1.8.1.9.5.1.4-.1.8-.5.9l-2.2.6.6 2.2c.1.4-.1.8-.5.9h-.3z"/><path class="st0" d="M3.2 170.4H3c-.4-.1-.6-.5-.5-.9l.6-2.2-2.2-.6c-.4-.1-.6-.5-.5-.9.1-.4.5-.6.9-.5l2.9.8c.2.1.4.2.5.3.1.2.1.4.1.6l-.8 2.9c-.2.2-.5.5-.8.5zM20 160.6h-.2l-2.9-.8c-.2-.1-.4-.2-.5-.3s-.1-.4-.1-.6l.8-2.9c.1-.4.5-.6.9-.5.4.1.6.5.5.9l-.6 2.2 2.2.6c.4.1.6.5.5.9.1.3-.2.5-.6.5z"/><path class="st1" d="M101.6 106.3c-.2-2.5-.7-4.7-1.2-6.5-1.1-3.3-3-6.2-5.5-8.7-1.7-1.9-4-3.5-6.7-4.8h-.1c-2.9-1.2-6.1-1.8-9.6-1.9-4.5 0-8.6 1.1-12.3 3.4V73.6h32.7c.8 0 1.5-.7 1.5-1.5V59.8c0-.8-.7-1.5-1.5-1.5H53.1c-.8 0-1.5.7-1.5 1.5v45.4c0 .8.7 1.5 1.5 1.5h11.6c.5 0 1-.3 1.3-.8 1.3-2.4 2.8-4.1 4.4-5 1.6-.9 3.4-1.3 5.4-1.3 2.3 0 4.2.3 5.7.9 1.4.7 2.5 1.7 3.2 2.9 1.5 2.8 2.2 6.6 2.1 11.2 0 2 0 3-.1 5.1-.1 2-.6 3.9-1.2 5.6-.6 1.6-1.5 2.8-3 3.8s-3.6 1.5-6.2 1.5c-6.1-.1-9.7-3-10.9-8.8-.1-.7-.7-1.2-1.4-1.2H51.6c-.4 0-.8.2-1.1.5-.3.3-.4.7-.3 1.2 1.2 8.3 4.5 14.4 9.7 18.1 5.1 3.6 10.7 5.5 16.8 5.5 4.6-.1 8.6-1.2 11.9-3.2 3.4-1.9 6-4.1 7.8-6.5 2-2.4 3.5-5.2 4.4-8.4.8-3.1 1.2-6.5 1.2-12.2 0-3.7-.2-6.8-.4-9.3zM153.3 63.9c-4.8-4.3-10.7-6.6-17.5-6.6-6.6 0-12.4 2.2-17.2 6.5-5.2 4.4-7.8 10.8-7.9 18.9v36.7c.1 8.1 2.7 14.4 7.9 18.8 4.8 4.3 10.6 6.6 17.2 6.7 6.8-.1 12.7-2.3 17.5-6.7 4.9-4.4 7.5-10.7 7.6-18.8V82.6c-.1-8-2.7-14.3-7.6-18.7zm-7.3 54.8c-.2 7.6-3.5 11.2-10.2 11.3-6.8-.1-10-3.7-10.2-11.3V83.4c.1-7.5 3.4-11.1 10.2-11.3 6.8.1 10 3.7 10.2 11.3v35.3zM220.3 82.7c-.2-8.1-2.7-14.4-7.6-18.8-4.8-4.3-10.7-6.6-17.5-6.6-6.6 0-12.4 2.2-17.2 6.5-5.2 4.4-7.8 10.8-7.9 18.9v36.7c.1 8.1 2.7 14.4 7.9 18.8 4.8 4.3 10.6 6.6 17.2 6.7 6.8-.1 12.7-2.3 17.5-6.7 4.9-4.4 7.5-10.7 7.6-18.8V82.7zm-14.9 36c-.2 7.6-3.5 11.2-10.2 11.3-6.8-.1-10-3.7-10.2-11.3V83.4c.1-7.5 3.4-11.1 10.2-11.3 6.8.1 10 3.7 10.2 11.3v35.3z"/><path class="st2" d="M105.1 108.8c-.2-2.5-.7-4.7-1.2-6.5-1.1-3.3-3-6.2-5.5-8.7-1.7-1.9-4-3.5-6.7-4.8h-.1c-2.9-1.2-6.1-1.8-9.6-1.9-4.5 0-8.6 1.1-12.3 3.4V76.1h32.7c.8 0 1.5-.7 1.5-1.5V62.3c0-.8-.7-1.5-1.5-1.5H56.6c-.8 0-1.5.7-1.5 1.5v45.4c0 .8.7 1.5 1.5 1.5h11.6c.5 0 1-.3 1.3-.8 1.3-2.4 2.8-4.1 4.4-5 1.6-.9 3.4-1.3 5.4-1.3 2.3 0 4.2.3 5.7.9 1.4.7 2.5 1.7 3.2 2.9 1.5 2.8 2.2 5.6 2.1 10.3 0 2 0 4-.1 6.1-.1 2-.6 3.9-1.2 5.6-.6 1.6-1.5 2.8-3 3.8s-3.6 1.5-6.2 1.5c-6.1-.1-9.7-3-10.9-8.8-.1-.7-.7-1.2-1.4-1.2H55c-.4 0-.8.2-1.1.5s-.4.7-.3 1.2c1.2 8.3 4.5 14.4 9.7 18.1 5.1 3.6 10.7 5.5 16.8 5.5 4.6-.1 8.6-1.2 11.9-3.2 3.4-1.9 6-4.1 7.8-6.5 2-2.4 3.5-5.2 4.4-8.4.8-3.1 1.2-7.5 1.2-13.2 0-3.7-.1-5.9-.3-8.4zM156.8 67.3c-4.8-4.3-10.7-6.6-17.5-6.6-6.6 0-12.4 2.2-17.2 6.5-5.2 4.4-7.8 10.8-7.9 18.9v36.7c.1 8.1 2.7 14.4 7.9 18.8 4.8 4.3 10.6 6.6 17.2 6.7 6.8-.1 12.7-2.3 17.5-6.7 4.9-4.4 7.5-10.7 7.6-18.8V86c-.2-7.9-2.7-14.3-7.6-18.7zm-7.3 54.9c-.2 7.6-3.5 11.2-10.2 11.3-6.8-.1-10-3.7-10.2-11.3V86.9c.1-7.5 3.4-11.1 10.2-11.3 6.8.1 10 3.7 10.2 11.3v35.3zM223.8 86.2c-.2-8.1-2.7-14.4-7.6-18.8-4.8-4.3-10.7-6.6-17.5-6.6-6.6 0-12.4 2.2-17.2 6.5-5.2 4.4-7.8 10.8-7.9 18.9v36.7c.1 8.1 2.7 14.4 7.9 18.8 4.8 4.3 10.6 6.6 17.2 6.7 6.8-.1 12.7-2.3 17.5-6.7 4.9-4.4 7.5-10.7 7.6-18.8V86.2zm-14.9 36c-.2 7.6-3.5 11.2-10.2 11.3-6.8-.1-10-3.7-10.2-11.3V86.9c.1-7.5 3.4-11.1 10.2-11.3 6.8.1 10 3.7 10.2 11.3v35.3z"/><path class="st3" d="M135.8 145.9c-6.9-.1-12.9-2.4-17.9-6.9-5.3-4.6-8.1-11.1-8.2-19.5V82.7c.1-8.4 2.9-15 8.2-19.6 4.9-4.5 10.9-6.8 17.8-6.8 7.1 0 13.2 2.3 18.2 6.8 5.1 4.6 7.8 11.2 7.9 19.5v36.8c-.2 8.4-2.8 14.9-8 19.5-4.8 4.6-10.9 6.9-18 7zm0-87.6c-6.4 0-11.9 2.1-16.5 6.3-4.9 4.2-7.5 10.3-7.6 18.1v36.7c.1 7.8 2.6 13.8 7.5 18 4.6 4.2 10.2 6.4 16.6 6.4 6.5-.1 12.2-2.2 16.8-6.4 4.7-4.2 7.2-10.3 7.3-18.1V82.6c-.2-7.8-2.6-13.9-7.3-18.1-4.6-4.1-10.2-6.2-16.8-6.2zm0 72.7c-7.4-.1-11-4.1-11.2-12.2V83.5c.1-8.1 3.8-12.1 11.1-12.3 7.3.2 11 4.2 11.2 12.2v35.3c-.1 8.2-3.8 12.2-11.1 12.3zm0-57.8c-6.2.1-9 3.3-9.2 10.3v35.2c.1 7 3 10.2 9.2 10.3 6.2-.1 9-3.2 9.2-10.3V83.5c-.2-7-3-10.2-9.2-10.3zM195.2 145.9c-6.9-.1-12.9-2.4-17.9-6.9-5.3-4.6-8.1-11.1-8.2-19.5V82.7c.1-8.4 2.9-15 8.2-19.6 4.9-4.5 10.9-6.8 17.8-6.8 7.1 0 13.2 2.3 18.2 6.8 5.1 4.6 7.8 11.2 8 19.5v36.8c-.2 8.4-2.8 14.9-8 19.5-4.9 4.6-11 6.9-18.1 7zm0-87.6c-6.4 0-11.9 2.1-16.5 6.3-4.9 4.2-7.5 10.3-7.6 18.1v36.7c.1 7.8 2.6 13.8 7.5 18 4.6 4.2 10.2 6.4 16.6 6.4 6.5-.1 12.2-2.2 16.8-6.4 4.7-4.2 7.2-10.3 7.3-18.1V82.6c-.2-7.8-2.6-13.9-7.3-18.1-4.6-4.1-10.2-6.2-16.8-6.2zm0 72.7c-7.4-.1-11-4.1-11.2-12.2V83.5c.1-8.1 3.8-12.1 11.1-12.3 7.3.2 11 4.2 11.2 12.2v35.3c-.1 8.2-3.8 12.2-11.1 12.3zm0-57.8c-6.2.1-9 3.3-9.2 10.3v35.2c.1 7 3 10.2 9.2 10.3 6.2-.1 9-3.2 9.2-10.3V83.5c-.2-7-3-10.2-9.2-10.3zm10.2 45.5zM51.2 157.6c2.2 0 3 .8 3 2.2 0 .4 0 .7-.1 1.2-1.1 4.9-4.8 9.2-9.7 11.6-.2.1-.5.2-.7.2-.7 0-1.2-.6-1.2-1.2 0-.4.2-.8.7-1.1 4.6-2.4 7.2-5.7 8.3-9.4 0-.2.1-.3.1-.4 0-.4-.3-.5-.9-.5l-10 .1c-.8 0-1.2-.6-1.2-1.2s.4-1.1 1.1-1.1l10.6-.4zm6.4-1.7c0 1.3-1 2.2-2.2 2.2-1.3 0-2.2-1-2.2-2.2 0-1.2 1-2.2 2.2-2.2 1.2 0 2.2.9 2.2 2.2zm-3.4 0c0 .7.5 1.2 1.2 1.2s1.2-.5 1.2-1.2-.5-1.2-1.2-1.2-1.2.5-1.2 1.2zM61.7 168.1c0 .6.1.8.5.8.1 0 .3 0 .5-.1 2.9-.9 6.7-3.4 8.9-6 .3-.4.6-.5 1-.5.7 0 1.3.5 1.3 1.2 0 .3-.1.6-.4.9-2.6 3.1-6.8 5.8-10.4 6.9-.5.2-1 .2-1.4.2-1.5 0-2.4-.9-2.4-2.8v-11.2c0-.7.6-1 1.2-1s1.2.3 1.2 1v10.6zM90.2 159.7c.2 0 .4-.1.6-.1 1.2 0 2 .7 2 1.8 0 .4-.1.9-.4 1.4-.7 1.5-1.9 2.9-3 4-.3.2-.6.4-.9.4-.6 0-1.2-.5-1.2-1.1 0-.3.1-.7.5-1 .9-.8 1.7-1.8 2.2-2.7 0-.1.1-.2.1-.2 0-.1-.1-.2-.2-.2h-.2l-6.2 1.1v5.7c0 1.2.3 1.5 2.1 1.5 2 0 3.7-.1 5.4-.5h.2c.7 0 1 .5 1 1.1 0 .5-.3 1-1 1.1-1.9.3-3.5.4-5.5.4-3.9 0-4.7-1-4.7-3.4v-5.6l-3.6.6h-.2c-.7 0-1-.6-1-1.1 0-.5.3-.9.9-1l4-.7v-5.1c0-.7.6-1 1.2-1s1.2.3 1.2 1v4.6l6.7-1zm-.2-3.3c0-.4.4-.8.9-.8.2 0 .4.1.6.2.6.5 1.2 1.2 1.6 1.8.1.2.2.4.2.6 0 .5-.4.8-.8.8-.2 0-.5-.1-.7-.4-.5-.7-1.1-1.3-1.5-1.8-.2-.1-.3-.2-.3-.4zm2.1-1.6c0-.4.4-.8.9-.8.2 0 .4.1.6.2.5.5 1.2 1.1 1.6 1.7.2.2.2.4.2.6 0 .5-.4.8-.8.8-.2 0-.5-.1-.7-.4-.5-.6-1.1-1.2-1.5-1.7-.3-.1-.3-.3-.3-.4zM103.1 159.8c.3.3.4.6.4.9 0 .7-.6 1.4-1.3 1.4-.3 0-.6-.1-.9-.4-.9-.9-1.9-1.8-2.8-2.5-.4-.3-.5-.6-.5-.9 0-.6.6-1.3 1.3-1.3.3 0 .5.1.8.3.9.6 2 1.5 3 2.5zm9.1-.6c.6 0 1.3.5 1.3 1.1 0 .2-.1.4-.2.7-3 5.2-7.7 9-12.9 10.9-.2.1-.4.1-.6.1-.7 0-1.2-.6-1.2-1.3 0-.5.2-.9.8-1.1 4.7-1.8 9.2-5.4 11.7-9.8.3-.4.7-.6 1.1-.6zM119.5 161.9c.2-.4.6-.6 1-.6.2 0 .4 0 .5.1 1.3.6 3.1 1.6 4.4 2.7.4.3.6.7.6 1.1 0 .7-.5 1.2-1.2 1.2-.3 0-.6-.1-.9-.3-1.2-.9-3-2-3.9-2.5-.3-.2-.5-.4-.6-.6v9c0 .7-.6 1.1-1.2 1.1s-1.2-.4-1.2-1.1v-16c0-.7.6-1.1 1.2-1.1s1.2.4 1.2 1.1v5.9zM137.9 156v-.2c0-.6.6-1 1.2-1 .5 0 1 .3 1.1.9l.6 3.4 4.7-.7h.2c.7 0 1.1.6 1.1 1.2 0 .5-.3.9-.9 1l-4.7.7.5 2.9 6.1-1h.2c.7 0 1 .6 1 1.1 0 .5-.3.9-.9 1l-6.1 1 1 5.6v.2c0 .6-.6 1-1.2 1-.5 0-1-.3-1.1-.9l-1-5.6-6.1 1h-.2c-.7 0-1-.6-1-1.2 0-.5.3-.9.9-1l6.1-1-.5-3-4.7.7h-.2c-.6 0-1-.6-1-1.2 0-.5.2-.9.9-1l4.6-.7-.6-3.2zM163.2 162.2h.6c1.2 0 1.9.6 1.9 1.6 0 .4-.1.8-.3 1.2-.6 1.2-1.5 2.4-2.5 3.3-.3.3-.6.4-.9.4-.6 0-1.1-.5-1.1-1 0-.2.1-.5.4-.8.7-.7 1.4-1.5 1.8-2.3.1-.1.1-.2.1-.2 0-.1-.1-.2-.2-.2h-.2l-4.6.7 1.5 7.6v.2c0 .6-.5.9-1.1.9-.5 0-.9-.2-1-.8l-1.5-7.6-3.5.6h-.2c-.6 0-.9-.5-.9-1 0-.4.2-.9.8-.9l3.5-.5-.7-3.4v-.2c0-.6.5-.9 1.1-.9.5 0 1 .2 1.1.8l.6 3.4 5.3-.9zM173.9 159.8c.3.3.4.6.4.9 0 .7-.6 1.4-1.3 1.4-.3 0-.6-.1-.9-.4-.9-.9-1.9-1.8-2.8-2.5-.4-.3-.5-.6-.5-.9 0-.6.6-1.3 1.3-1.3.3 0 .5.1.8.3.9.6 2.1 1.5 3 2.5zm9.2-.6c.6 0 1.3.5 1.3 1.1 0 .2-.1.4-.2.7-3 5.2-7.7 9-12.9 10.9-.2.1-.4.1-.6.1-.7 0-1.2-.6-1.2-1.3 0-.5.2-.9.8-1.1 4.7-1.8 9.2-5.4 11.7-9.8.3-.4.7-.6 1.1-.6zM190.4 160.4c.6-.6 1.2-.8 1.8-.8.6 0 1.1.2 1.7.6l9.2 7.1c.4.4.6.7.6 1.1 0 .7-.6 1.3-1.3 1.3-.3 0-.7-.1-1-.4l-8.5-6.9c-.3-.2-.5-.3-.7-.3-.2 0-.4.1-.7.4l-3.8 3.8c-.3.3-.7.5-1 .5-.6 0-1.2-.5-1.2-1.1 0-.3.1-.6.4-1l4.5-4.3zm11.8-1.5c0 1.3-1 2.2-2.2 2.2-1.3 0-2.2-1-2.2-2.2 0-1.2 1-2.2 2.2-2.2 1.2 0 2.2 1 2.2 2.2zm-1.1 0c0-.7-.5-1.2-1.2-1.2s-1.2.5-1.2 1.2.5 1.2 1.2 1.2 1.2-.5 1.2-1.2zM221.9 162.9c.7 0 1.1.6 1.1 1.2s-.4 1.2-1.1 1.2h-15.2c-.7 0-1.1-.6-1.1-1.2s.4-1.2 1.1-1.2h15.2zM230.4 159.8c.3.3.4.6.4.9 0 .7-.6 1.4-1.3 1.4-.3 0-.6-.1-.9-.4-.9-.9-1.9-1.8-2.8-2.5-.4-.3-.5-.6-.5-.9 0-.6.6-1.3 1.3-1.3.3 0 .5.1.8.3.9.6 2 1.5 3 2.5zm9.2-.6c.6 0 1.3.5 1.3 1.1 0 .2-.1.4-.2.7-3 5.2-7.7 9-12.9 10.9-.2.1-.4.1-.6.1-.7 0-1.2-.6-1.2-1.3 0-.5.2-.9.8-1.1 4.7-1.8 9.2-5.4 11.7-9.8.3-.4.7-.6 1.1-.6z"/><g><path class="st4" d="M50.8 45.3c-.7.9-1.4 1.7-2.2 2.3-.2.2-.5.3-.7.3-.5 0-.9-.4-.9-.9 0-.2.1-.5.4-.7 1-.8 2-1.9 2.8-3.1h-1.9c-.5 0-.7-.4-.7-.9 0-.4.2-.9.7-.9h2.4V40h-2.8c-.5 0-.7-.4-.7-.9 0-.4.2-.9.7-.9h3.9c.3-.7.6-1.3.8-2.1.1-.5.5-.6.8-.6.5 0 .9.3.9.8 0 .1 0 .2-.1.3-.2.7-.4 1.2-.6 1.7h1.9c.5 0 .7.4.7.9 0 .4-.2.9-.7.9h-2.9v1.4H55c.5 0 .7.4.7.9 0 .4-.2.9-.7.9h-2.3v.8c.7.3 1.5.8 2.1 1.2.3.2.4.5.4.8 0 .5-.4.9-.9.9-.2 0-.4-.1-.5-.2-.4-.3-.8-.5-1.1-.8v2.7c0 .5-.5.8-1 .8s-1-.3-1-.8v-1l.1-2.4zm-.1-12.9c0-.5.5-.8 1-.8s1 .2 1 .8v1.2h2.4c.5 0 .7.4.7.9 0 .4-.2.9-.7.9h-6.6c-.5 0-.7-.4-.7-.9 0-.4.2-.9.7-.9h2.2v-1.2zm.6 4.9c0 .5-.5.8-.9.8-.3 0-.7-.2-.8-.5-.1-.3-.2-.5-.4-.8-.1-.1-.1-.3-.1-.4 0-.5.4-.8.9-.8.3 0 .7.2.8.5.2.3.2.5.4.9.1.1.1.2.1.3zm5.7-3.2c0-.5.5-.8 1-.8.2 0 .5.1.6.2 1.3-.3 2.5-.8 3.6-1.2.2-.1.3-.1.5-.1.6 0 .9.5.9 1 0 .3-.2.7-.6.8-1.1.5-2.6 1-4.1 1.4v2.5h5c.5 0 .8.4.8.9s-.2.9-.8.9h-1.3v8.6c0 .6-.5.8-1 .8s-1-.3-1-.8v-8.6H59c-.1 3.9-.9 6.7-2.2 8.8-.2.4-.6.5-.9.5-.5 0-1-.4-1-.9 0-.2.1-.4.2-.7 1.2-1.9 1.9-4.6 1.9-8.9v-4.4zM74.3 38.8c.5 0 .8.5.8.9 0 .5-.2.9-.8.9h-2c-.1.6-.2 1.2-.3 1.7 1.1.7 2 1.5 2.6 2.2.2.2.3.5.3.7 0 .5-.5 1-1 1-.3 0-.5-.1-.8-.4-.5-.6-1-1.1-1.7-1.7-.5 1.5-1.3 2.7-2.3 3.8-.2.3-.5.4-.8.4-.5 0-1-.4-1-.9 0-.2.1-.5.3-.8 1.4-1.6 2.2-3.6 2.6-6.1H68c-.5 0-.8-.5-.8-.9 0-.5.3-.9.8-.9h2.3v-2.3h-1.8c-.5 0-.8-.5-.8-.9 0-.5.3-.9.8-.9h1.8v-2.3c0-.6.5-.8 1-.8s1 .3 1 .8v2.3h1.5c.5 0 .8.5.8.9 0 .5-.2.9-.8.9h-1.5v2.3h2zm4.9 4c-.3 3.1-2 5.1-4.4 6.1-.1.1-.3.1-.4.1-.5 0-.9-.5-.9-.9 0-.3.2-.7.6-.9 1.8-.9 3-2.2 3.2-4.4-1.2-.2-1.6-.8-1.6-2V34c0-1.3.6-2 2.2-2h3.7c1.5 0 2.2.6 2.2 2v6.8c0 1.3-.5 2-1.9 2v4c0 .3.1.4.6.4.7 0 .9-.2 1-1.1 0-.5.4-.8.8-.8s.8.3.8.8c0 .7-.3 1.6-.6 2-.5.5-1 .7-2.3.7-1.9 0-2.2-.4-2.2-1.6v-4.4h-.8zm2.5-8.5c0-.4-.1-.5-.5-.5h-2.9c-.4 0-.5.1-.5.5v.9h4v-.9zm-4 3.8h4v-1.4h-4v1.4zm3.4 3.1c.4 0 .5-.1.5-.5v-1h-4v1c0 .4.1.5.5.5h3zM104.7 38c.5.2.7.6.7 1 0 .5-.4 1-1 1-.2 0-.4 0-.7-.2-2.6-1.3-5.3-3.5-7.3-5.8-2 2.4-4.6 4.6-7.3 6.1-.2.1-.4.2-.5.2-.5 0-1-.5-1-1 0-.3.2-.7.6-.9 2.9-1.7 5.5-4 7.4-6.6.2-.3.6-.5.9-.5.5 0 1.1.4 1.1.9 0 .1 0 .2-.1.3 1.8 2.3 4.5 4.3 7.2 5.5zm-8.9 5.2c-.6 1.1-1.2 2.2-1.9 3.3 1.7-.1 3.4-.3 5.1-.5l-.8-.8c-.2-.2-.3-.4-.3-.6 0-.5.5-.9 1-.9.2 0 .5.1.7.3 1.1.9 2.4 2.2 3.2 3.3.2.3.3.5.3.8 0 .5-.5.9-1 .9-.3 0-.7-.2-1-.5-.2-.3-.5-.6-.7-.9-3.3.5-5.9.8-9.4 1h-.8c-.6 0-.9-.5-.9-1s.3-.9 1-1l1.3-.1c.7-1.1 1.4-2.2 2-3.4h-3.9c-.5 0-.8-.5-.8-.9 0-.5.3-.9.8-.9h13.6c.6 0 .8.5.8.9 0 .5-.3.9-.8.9h-7.5zm3.6-5.3c.6 0 .8.5.8.9 0 .5-.3.9-.8.9h-5.9c-.5 0-.8-.5-.8-.9 0-.5.3-.9.8-.9h5.9zM113.3 46c.6 0 1 .4 1 .9 0 .3-.2.6-.6.8-1.3.6-3.1 1.2-4.7 1.5h-.2c-.6 0-.9-.5-.9-.9s.2-.8.8-.9c1.4-.3 2.9-.8 4.1-1.3.2 0 .4-.1.5-.1zm-1.2 0c-1.7 0-2.4-.6-2.4-1.9v-4.9c0-1.3.7-1.9 2.4-1.9h8.2c1.7 0 2.4.6 2.4 1.9v4.9c0 1.6-1 1.9-2.4 1.9h-8.2zm.6-9.6c-1.5 0-2.1-.5-2.1-1.6v-1.1c0-1.1.6-1.6 2.1-1.6h7c1.5 0 2.1.5 2.1 1.6v1.1c0 1.4-.9 1.6-2.1 1.6h-7zm8.1 2.8c0-.4-.1-.5-.7-.5h-7.6c-.6 0-.7.1-.7.5v.5h9.1v-.5zm-9.1 2.9h9.1v-1h-9.1v1zm8.4 2.4c.6 0 .7-.1.7-.5v-.6h-9.1v.6c0 .5.3.5.7.5h7.7zm-.8-9.5c.5 0 .6-.1.6-.4V34c0-.3-.1-.4-.6-.4h-6.2c-.5 0-.6.1-.6.4v.6c0 .4.3.4.6.4h6.2zm4.3 12.4c.5.1.8.5.8.9 0 .5-.3.9-.9.9h-.3c-1.7-.4-3.5-.9-4.6-1.5-.4-.2-.6-.5-.6-.8 0-.5.4-.9.9-.9.2 0 .3 0 .5.1 1 .5 2.6.9 4.2 1.3zM133 32.8c1.3 0 2 .6 2 1.4 0 .4-.2.9-.5 1.3-1.4 1.9-3.8 4-6.2 5.2-.2.1-.4.1-.5.1-.5 0-.8-.4-.8-.9 0-.3.1-.6.5-.8 1-.5 1.9-1.1 2.7-1.8-.3-.3-.7-.6-.9-.8-.2-.2-.3-.4-.3-.7 0-.4.4-.8.9-.8.2 0 .4.1.6.2.3.2.7.5 1.1.9.4-.5.8-.9 1.1-1.4.1-.1.1-.2.1-.3 0-.1-.1-.2-.4-.2h-3c-.5 0-.7-.4-.7-.8s.2-.8.7-.8h3.6zm.1 14.2l-.6-.9c-.1-.2-.2-.4-.2-.5 0-.5.5-.8 1-.8.3 0 .6.1.8.4.2.3.5.7.7 1 .1.2.1.3.1.5 0 .1 0 .3-.1.4h1.9c.3-.6.6-1.1.9-1.7.2-.4.5-.5.8-.5.5 0 1 .4 1 .9 0 .1 0 .3-.1.4-.2.3-.4.7-.6 1h4.6c.5 0 .7.4.7.8s-.2.8-.7.8h-15.1c-.5 0-.7-.4-.7-.8s.2-.8.7-.8h4.9zm-.1-2.4c-1.6 0-2.1-.5-2.1-1.6v-1.2c0-1 .5-1.6 2.1-1.6h6c1.6 0 2.1.5 2.1 1.6V43c0 1.4-.9 1.6-2.1 1.6h-6zm5.6-1.5c.4 0 .5-.1.5-.4V42c0-.3-.1-.4-.5-.4h-5.3c-.4 0-.5.1-.5.4v.7c0 .3.1.4.5.4h5.3zm-5-4c-.5 0-.7-.4-.7-.8s.2-.8.7-.8h5c.5 0 .7.4.7.8s-.2.8-.7.8h-5zm6.7-3.3c.5-.4 1-.9 1.4-1.4.2-.2.5-.3.7-.3.5 0 .9.4.9.9 0 .2-.1.4-.2.6-.5.5-1 1-1.5 1.4.8.6 1.7 1.2 2.6 1.6.5.2.7.6.7.9 0 .5-.4 1-1 1-.2 0-.3 0-.5-.1-2.9-1.5-6-4.4-7.5-7.2-.1-.2-.1-.3-.1-.4 0-.5.5-.8.9-.8.3 0 .7.2.9.5.2.5.5.9.8 1.3.4-.3.8-.7 1.1-1.1.2-.2.5-.3.7-.3.5 0 1 .4 1 .9 0 .2-.1.4-.2.6l-1.4 1.4c.1-.1.4.2.7.5zM153.2 37c.5 0 .7.4.7.8s-.2.8-.7.8h-1v1.3h1.7c.5 0 .7.4.7.8s-.2.8-.7.8h-1.7v4.1c.3-.1.5-.2.8-.2h.3c.5 0 .8.5.8.9 0 .3-.2.7-.5.8-1.6.6-3.4 1-5 1.2h-.1c-.6 0-.9-.5-.9-.9s.2-.8.7-.8c.7-.1 1.4-.2 2-.4v-4.5h-2.2c-.5 0-.7-.4-.7-.8s.2-.8.7-.8h2.2v-1.3h-1c-.5 0-.7-.4-.7-.8 0-.1 0-.3.1-.4-.2.1-.3.1-.5.1-.5 0-.9-.4-.9-.9 0-.3.1-.5.4-.8 1-.8 2.2-2.3 3-3.6.2-.3.5-.5.8-.5.5 0 1 .3 1 .8 0 .1-.1.3-.1.5.7.5 1.5 1.2 2.1 2 .2.2.3.5.3.7 0 .5-.4.9-.9.9-.3 0-.6-.1-.8-.4-.5-.6-1-1.1-1.6-1.7-.6.9-1.4 1.7-2.2 2.4h3.9zm-3.1 7.7v.2c0 .5-.4.7-.8.7-.3 0-.6-.2-.7-.5-.1-.7-.4-1.3-.6-1.8-.1-.1-.1-.2-.1-.3 0-.4.4-.7.8-.7.3 0 .6.1.7.5.2.5.5 1.3.7 1.9zm3.4-2.7c.4 0 .8.2.8.7v.2c-.2.6-.3 1.1-.5 1.5-.2.4-.4.5-.7.5-.4 0-.7-.3-.7-.6 0-.1 0-.2.1-.3.2-.5.3-.9.5-1.5 0-.3.2-.5.5-.5zm1.7-2.3c-.5 0-.7-.4-.7-.8s.2-.8.7-.8h5.5V37h-3.9c-.5 0-.7-.4-.7-.8s.2-.8.7-.8h3.9v-.6c0-.4-.1-.5-.5-.5h-3.8c-.5 0-.7-.4-.7-.9 0-.4.2-.9.7-.9h4.1c1.6 0 2.1.7 2.1 1.9V38h1.9c.5 0 .7.4.7.8s-.2.8-.7.8h-3.8c.2.7.5 1.4.8 2.1.5-.4 1-.8 1.5-1.3.2-.2.5-.3.7-.3.5 0 1 .4 1 .9 0 .2-.1.5-.4.7-.6.5-1.2 1-1.9 1.5.7.9 1.4 1.7 2.3 2.5.3.3.5.6.5.9 0 .5-.5 1-1 1-.2 0-.5-.1-.7-.3-1.2-1.1-2.2-2.5-3-4.1l.1 2.8v1c0 1.4-.7 1.9-2.1 1.9-.5 0-.9 0-1.2-.1-.5-.1-.8-.5-.8-.9 0-.5.3-.9.9-.9h.2c.3.1.4.1.7.1.3 0 .4-.1.4-.5v-2c-.1.1-.1.2-.3.4-.7.7-1.6 1.3-2.7 1.9-.2.1-.3.1-.5.1-.5 0-.9-.5-.9-1 0-.3.1-.5.5-.7 1-.6 1.8-1.2 2.5-1.8.2-.2.4-.2.5-.2.4 0 .7.2.8.5v-4.3h-3.4zm2.6 1.9c.2.2.2.5.2.7 0 .5-.5.9-.9.9-.3 0-.5-.1-.7-.4-.3-.4-.5-.7-.9-1.1-.2-.2-.3-.4-.3-.6 0-.5.4-.8.9-.8.2 0 .4.1.6.2.5.4.7.6 1.1 1.1z"/><g><path class="st3" d="M175.8 44c-.3.2-.7.4-1.1.4-1.5 0-2.5-1-2.5-2.7 0-1.5.9-2.5 2.3-2.5.3 0 .6 0 .9.1v-1.2c-1.1.1-3.6.2-5.1.3h-.7c-.5 0-.8-.4-.8-.8s.2-.8.8-.8c1.8-.1 3.8-.2 5.8-.3v-1.8c0-.5.4-.7.8-.7s.8.2.8.7v1.8c1.5 0 3-.1 4.4-.1.5 0 .8.4.8.8s-.3.8-.7.8c-1.3 0-2.8 0-4.4.1 0 .9 0 1.7.1 2.6.3.5.5 1.2.5 2 0 2.3-1.2 4-3.3 4.9-.1.1-.3.1-.4.1-.5 0-.8-.4-.8-.8 0-.3.2-.6.6-.8.9-.5 1.8-1.4 2-2.1zm-2.1-2.2c0 .7.5 1.2 1 1.2s.9-.4.9-1c0-.7-.4-1.2-1-1.2-.5-.1-.9.3-.9 1zM188.1 40c.6-.3 1.3-.4 1.9-.4 2.3 0 3.8 1.3 3.8 3.3 0 2.6-1.9 4.3-4.8 4.3-2 0-3.3-1-3.3-2.4 0-1.1.7-1.9 2.1-1.9 1.4 0 2.4 1 2.9 2.4.9-.4 1.4-1.3 1.4-2.4 0-1.1-.8-1.9-2.3-1.9-1.5 0-3 .5-4.8 1.9-.2.2-.4.2-.6.2-.5 0-.8-.4-.8-.8 0-.2.1-.5.4-.7 1.7-1.3 3.6-3.3 5-5-.7.1-1.7.2-2.4.3h-.6c-.5 0-.7-.4-.7-.8s.2-.7.7-.8c1.2-.1 2.8-.3 4.2-.5h.2c.6 0 1 .4 1 .9 0 .2-.1.5-.3.7-.9 1.3-2 2.6-3 3.6zm1 5.7c-.3-1-.7-1.5-1.3-1.5-.3 0-.5.3-.5.6 0 .5.6.9 1.7.9h.1zM196.5 39.3c-.5 0-.7-.4-.7-.8s.3-.8.8-.8c.6 0 1.3-.1 2.1-.3.1-.8.2-1.5.3-2.3 0-.5.4-.7.8-.7s.8.3.8.7v.1c-.1.7-.1 1.2-.2 1.8.4-.1.8-.2 1.3-.3h.2c.5 0 .7.4.7.8 0 .3-.2.6-.6.7-.7.2-1.3.4-1.9.5-.5 2.9-1.2 5.7-2.1 7.8-.2.4-.5.7-.9.7s-.8-.3-.8-.8c0-.1 0-.3.1-.4.8-2 1.5-4.4 2-7-.7.2-1.5.3-1.9.3zm5.7 4.1c.3 0 .7.2.7.6.1 1 .6 1.2 2.3 1.2.8 0 1.4-.1 2-.1h.2c.5 0 .8.4.8.8s-.2.7-.7.8c-.6.1-1.4.2-2.2.2-1.8 0-2.7-.4-3.2-1-.4-.4-.6-1.1-.6-1.7-.2-.5.3-.8.7-.8zm4.4-4.5c.5 0 .8.4.8.8s-.3.8-.8.8c-1.2 0-2.6.2-3.6.4h-.2c-.5 0-.7-.4-.7-.8 0-.3.2-.7.7-.8 1.2-.2 2.6-.4 3.8-.4zm-2.4-2.9c0-.3.3-.6.6-.6.1 0 .3 0 .4.2.4.4.8.8 1.2 1.3.1.1.1.3.1.4 0 .3-.3.6-.6.6-.2 0-.4-.1-.5-.3-.4-.5-.8-.9-1.1-1.3 0-.1-.1-.2-.1-.3zm1.5-1.2c0-.3.3-.5.6-.5.1 0 .3.1.4.2.4.3.8.8 1.1 1.2.1.1.2.3.2.4 0 .3-.3.6-.6.6-.2 0-.4-.1-.5-.3-.3-.4-.8-.9-1.1-1.2-.1-.2-.1-.3-.1-.4zM212.2 35c.4 0 .9.3.9.7v.2c-.5 2-.7 4-.7 5.8 0 1.3.1 2.6.3 3.5v.2c0 .5-.4.8-.9.8-.4 0-.7-.2-.8-.7-.2-1.1-.4-2.5-.4-3.9 0-1.9.2-4.1.7-6.2.1-.2.5-.4.9-.4zm6.3 4.7c-.6 0-1.3.1-1.8.1h-1.3c-.5 0-.7-.4-.7-.8s.3-.8.7-.8h1.2c.6 0 1.2 0 1.8-.1 0-.9-.1-1.4-.1-2.2v-.4c0-.5.4-.7.8-.7s.8.2.8.7c.1.8.1 1.7.1 2.6.5-.1 1-.1 1.5-.2h.1c.5 0 .7.4.7.8 0 .3-.2.6-.6.7-.5.1-1.1.2-1.8.3v1.1c0 2.9-.8 5-2 6.4-.2.2-.4.3-.7.3-.4 0-.8-.3-.8-.8 0-.2.1-.4.2-.6 1.1-1.3 1.7-2.9 1.7-5.3v-1.1zM228.3 45.4c0 .6-.5 1.1-1.1 1.1s-1.1-.5-1.1-1.1c0-.6.5-1.1 1.1-1.1s1.1.5 1.1 1.1zm-2.2-9.3c0-.6.5-1 1.1-1 .6 0 1 .4 1 1 0 .3-.1.9-.1 1.2-.1 1.9-.2 3.2-.3 5.6 0 .4-.3.6-.7.6-.4 0-.7-.2-.7-.6-.1-2.4-.1-3.8-.3-5.8.1-.3 0-.9 0-1z"/></g></g><g><circle class="st3" cx="94.4" cy="16.1" r="12.4"/><circle class="st3" cx="116" cy="16.1" r="12.4"/><circle class="st1" cx="181" cy="16.1" r="12.4"/><path class="st3" d="M181 5.2c6 0 10.9 4.9 10.9 10.9S187 27 181 27s-10.9-4.9-10.9-10.9S175 5.2 181 5.2m0-1.5c-6.8 0-12.4 5.5-12.4 12.4s5.5 12.4 12.4 12.4c6.8 0 12.4-5.5 12.4-12.4S187.8 3.7 181 3.7z"/><circle class="st1" cx="159.3" cy="16.1" r="12.4"/><path class="st3" d="M159.3 5.2c6 0 10.9 4.9 10.9 10.9S165.3 27 159.3 27s-10.9-4.9-10.9-10.9 4.9-10.9 10.9-10.9m0-1.5c-6.8 0-12.4 5.5-12.4 12.4s5.5 12.4 12.4 12.4c6.8 0 12.4-5.5 12.4-12.4s-5.6-12.4-12.4-12.4z"/><circle class="st3" cx="137.7" cy="16.1" r="12.4"/><g><path class="st3" d="M178.3 16.9c1.1-1 2.8-1.6 4.3-1.6 2.3 0 3.8 1.3 3.8 3 0 2.3-1.9 3.9-5.5 4.3h-.1c-.5 0-.8-.4-.8-.8s.3-.7.8-.8c2.9-.3 3.9-1.4 3.9-2.7 0-.8-.6-1.5-2-1.5-1.6 0-3.4.8-4.6 2.3-.2.3-.5.4-.8.4-.4 0-.9-.3-.9-.9v-.2c.1-1.1.5-3 .9-5.1.1-.4.5-.6.8-.6.4 0 .8.3.8.7v.1c-.3 1.4-.5 2.5-.6 3.4zm4.5-6.1c.4.2.5.5.5.8 0 .4-.3.8-.8.8-.1 0-.3 0-.4-.1-.8-.3-1.7-.7-2.4-.9-.4-.1-.6-.4-.6-.7 0-.4.3-.9.9-.9h.3c.7.3 1.7.6 2.5 1z"/></g><g><path class="st5" d="M92.5 21.1c-.2.9-.7 1.3-1.5 1.3s-1.3-.3-1.5-1.3l-2.3-9.6c0-.2-.1-.3-.1-.5 0-.5.4-.8 1.1-.8.5 0 .8.2.9.7l1.1 5.4c.3 1.5.5 2.9.7 4.4h.1c.2-1.4.5-2.9.8-4.4l1-4.6c.2-.7.6-1.1 1.3-1.1.8 0 1.2.4 1.4 1.2l1 4.5c.3 1.5.6 2.9.8 4.4h.1c.3-1.4.5-2.9.8-4.4l1.1-5.3c.1-.5.4-.7.8-.7.7 0 1.1.3 1.1.8 0 .2 0 .3-.1.5L99 21.1c-.3 1-.7 1.4-1.5 1.4s-1.3-.3-1.6-1.4l-1-4.7c-.3-1.3-.5-2.4-.7-3.6h-.1c-.2 1.2-.4 2.5-.7 3.7l-.9 4.6z"/></g><g><path class="st5" d="M119.9 20.7c.5 0 .8.4.8.8s-.3.8-.8.8h-4.8c-1.9 0-2.4-.6-2.4-2.1v-7.7c0-1.5.5-2.1 2.4-2.1h4.4c.5 0 .8.4.8.8s-.3.8-.8.8h-3.9c-.7 0-.9.2-.9.8v2.4h3.9c.5 0 .8.4.8.8s-.3.8-.8.8h-3.9v3c0 .6.2.8.9.8h4.3z"/></g><g><path class="st5" d="M136.2 22.4c-1.8 0-2.4-.6-2.4-2.1v-7.9c0-1.5.6-2.1 2.4-2.1h1.9c2.5 0 3.8 1.1 3.8 3 0 1.2-.7 2.1-1.8 2.6 1.5.3 2.4 1.4 2.4 3.1 0 2.1-1.6 3.5-4.3 3.5h-2zm1.8-7.1c1.2 0 2-.7 2-1.8s-.7-1.7-1.9-1.7h-1.4c-.7 0-.9.2-.9.8v2.7h2.2zm.2 5.6c1.5 0 2.3-.8 2.3-2 0-1.4-.8-2-2.3-2h-2.5V20c0 .6.2.8.9.8h1.6z"/></g><g><path class="st3" d="M155.6 21.4c-.2.3-.5.5-.8.5-.4 0-.8-.3-.8-.7 0-.1 0-.3.1-.5.9-1.6 1.7-3.7 2.3-5.8l-1.8.3h-.2c-.5 0-.7-.4-.7-.8 0-.3.2-.7.7-.8.8-.1 1.6-.3 2.4-.3.2-.9.3-1.8.4-2.7.1-.5.4-.7.8-.7s.8.3.8.7v.1c-.1.8-.2 1.6-.4 2.4h.8c1.9 0 2.6.9 2.6 3.2 0 1.4-.1 2.6-.4 3.5-.5 1.7-1.1 2.3-2.6 2.3-.4 0-.7 0-1-.1-.5-.1-.7-.4-.7-.8s.3-.8.8-.8h.1c.3 0 .5.1.8.1.5 0 .8-.2 1-1 .3-.8.4-2 .4-3.2 0-1.3-.3-1.7-1-1.7h-1.1c-.6 2.5-1.5 4.9-2.5 6.8zm10.9-6c.1.2.1.4.1.5 0 .5-.4.9-.9.9-.3 0-.6-.2-.8-.6-.5-1.1-1.3-2.2-2.1-3.1-.2-.2-.2-.4-.2-.5 0-.4.4-.7.9-.7.2 0 .5.1.7.3.9.8 1.8 2.2 2.3 3.2z"/></g></g><g><path class="st6" d="M197.9 127.5c.5 0 1 .4 1 .9 0 .1 0 .3-.1.4-.6 1.4-1.4 2.7-2.5 3.7-.3.3-.6.4-.8.4-.6 0-1-.4-1-.9 0-.3.1-.5.4-.8.9-.8 1.6-2 2.1-3.2.1-.3.5-.5.9-.5zm5 5.6c0 1.7-.9 2.4-2.4 2.4-.4 0-.8 0-1.3-.1-.6-.1-.8-.5-.8-1s.3-1 1-1h.2c.3.1.5.1.7.1.4 0 .5-.1.5-.6v-7h-5c-.6 0-.8-.5-.8-.9 0-.5.3-.9.8-.9h5v-2.6c0-.6.5-.9 1.1-.9.5 0 1 .3 1 .8v2.6h5c.6 0 .8.5.8.9 0 .5-.3.9-.8.9h-5v7.3zm5.7-2c.2.3.3.6.3.8 0 .6-.5 1-1 1-.3 0-.7-.2-1-.5-.7-.9-1.6-2.4-2.1-3.5-.1-.2-.1-.3-.1-.5 0-.6.5-.9 1-.9.4 0 .7.2 1 .6.4.9 1.3 2.2 1.9 3zm1.1-9.4c0 1.1-.8 1.9-1.9 1.9-1.1 0-1.9-.8-1.9-1.9 0-1 .8-1.9 1.9-1.9 1.1 0 1.9.8 1.9 1.9zm-.9 0c0-.6-.4-1-1-1s-1 .4-1 1 .5 1 1 1c.6 0 1-.5 1-1zM217.7 127c-1.4 1.1-2.9 2.1-4.4 2.9-.2.1-.4.2-.6.2-.6 0-1-.5-1-1 0-.3.2-.7.7-1 3.1-1.6 6.3-4.3 8.4-7.1.2-.3.6-.5.9-.5.5 0 1.1.4 1.1 1 0 .2-.1.4-.2.6-1 1.3-2.3 2.7-3.7 3.9.5 0 .9.3.9.9v7.6c0 .6-.5.9-1 .9s-1-.3-1-.9V127zM230.6 124.4c.2.2.3.5.3.7 0 .6-.5 1.1-1.1 1.1-.3 0-.5-.1-.8-.3-.8-.8-1.6-1.5-2.4-2.1-.3-.2-.4-.5-.4-.8 0-.5.5-1.1 1.1-1.1.2 0 .5.1.7.2.9.7 1.8 1.5 2.6 2.3zm7.6-.5c.5 0 1.1.4 1.1 1 0 .2-.1.4-.2.6-2.5 4.3-6.4 7.5-10.7 9.1-.2.1-.3.1-.5.1-.6 0-1-.5-1-1.1 0-.4.2-.7.7-.9 3.9-1.5 7.7-4.5 9.8-8.2.1-.4.5-.6.8-.6zM245 126.1c.2-.3.5-.5.8-.5.2 0 .3 0 .5.1 1.1.5 2.6 1.4 3.7 2.2.3.3.5.6.5.9 0 .6-.4 1-1 1-.2 0-.5-.1-.7-.3-1-.8-2.5-1.7-3.2-2.1-.2-.1-.4-.3-.5-.5v7.5c0 .6-.5.9-1 .9s-1-.3-1-.9v-13.2c0-.6.5-.9 1-.9s1 .3 1 .9v4.9z"/></g><g><path class="st7" d="M197.9 127.5c.5 0 1 .4 1 .9 0 .1 0 .3-.1.4-.6 1.4-1.4 2.7-2.5 3.7-.3.3-.6.4-.8.4-.6 0-1-.4-1-.9 0-.3.1-.5.4-.8.9-.8 1.6-2 2.1-3.2.1-.3.5-.5.9-.5zm5 5.6c0 1.7-.9 2.4-2.4 2.4-.4 0-.8 0-1.3-.1-.6-.1-.8-.5-.8-1s.3-1 1-1h.2c.3.1.5.1.7.1.4 0 .5-.1.5-.6v-7h-5c-.6 0-.8-.5-.8-.9 0-.5.3-.9.8-.9h5v-2.6c0-.6.5-.9 1.1-.9.5 0 1 .3 1 .8v2.6h5c.6 0 .8.5.8.9 0 .5-.3.9-.8.9h-5v7.3zm5.7-2c.2.3.3.6.3.8 0 .6-.5 1-1 1-.3 0-.7-.2-1-.5-.7-.9-1.6-2.4-2.1-3.5-.1-.2-.1-.3-.1-.5 0-.6.5-.9 1-.9.4 0 .7.2 1 .6.4.9 1.3 2.2 1.9 3zm1.1-9.4c0 1.1-.8 1.9-1.9 1.9-1.1 0-1.9-.8-1.9-1.9 0-1 .8-1.9 1.9-1.9 1.1 0 1.9.8 1.9 1.9zm-.9 0c0-.6-.4-1-1-1s-1 .4-1 1 .5 1 1 1c.6 0 1-.5 1-1zM217.7 127c-1.4 1.1-2.9 2.1-4.4 2.9-.2.1-.4.2-.6.2-.6 0-1-.5-1-1 0-.3.2-.7.7-1 3.1-1.6 6.3-4.3 8.4-7.1.2-.3.6-.5.9-.5.5 0 1.1.4 1.1 1 0 .2-.1.4-.2.6-1 1.3-2.3 2.7-3.7 3.9.5 0 .9.3.9.9v7.6c0 .6-.5.9-1 .9s-1-.3-1-.9V127zM230.6 124.4c.2.2.3.5.3.7 0 .6-.5 1.1-1.1 1.1-.3 0-.5-.1-.8-.3-.8-.8-1.6-1.5-2.4-2.1-.3-.2-.4-.5-.4-.8 0-.5.5-1.1 1.1-1.1.2 0 .5.1.7.2.9.7 1.8 1.5 2.6 2.3zm7.6-.5c.5 0 1.1.4 1.1 1 0 .2-.1.4-.2.6-2.5 4.3-6.4 7.5-10.7 9.1-.2.1-.3.1-.5.1-.6 0-1-.5-1-1.1 0-.4.2-.7.7-.9 3.9-1.5 7.7-4.5 9.8-8.2.1-.4.5-.6.8-.6zM245 126.1c.2-.3.5-.5.8-.5.2 0 .3 0 .5.1 1.1.5 2.6 1.4 3.7 2.2.3.3.5.6.5.9 0 .6-.4 1-1 1-.2 0-.5-.1-.7-.3-1-.8-2.5-1.7-3.2-2.1-.2-.1-.4-.3-.5-.5v7.5c0 .6-.5.9-1 .9s-1-.3-1-.9v-13.2c0-.6.5-.9 1-.9s1 .3 1 .9v4.9z"/></g><g><path class="st5" d="M197.9 127.5c.5 0 1 .4 1 .9 0 .1 0 .3-.1.4-.6 1.4-1.4 2.7-2.5 3.7-.3.3-.6.4-.8.4-.6 0-1-.4-1-.9 0-.3.1-.5.4-.8.9-.8 1.6-2 2.1-3.2.1-.3.5-.5.9-.5zm5 5.6c0 1.7-.9 2.4-2.4 2.4-.4 0-.8 0-1.3-.1-.6-.1-.8-.5-.8-1s.3-1 1-1h.2c.3.1.5.1.7.1.4 0 .5-.1.5-.6v-7h-5c-.6 0-.8-.5-.8-.9 0-.5.3-.9.8-.9h5v-2.6c0-.6.5-.9 1.1-.9.5 0 1 .3 1 .8v2.6h5c.6 0 .8.5.8.9 0 .5-.3.9-.8.9h-5v7.3zm5.7-2c.2.3.3.6.3.8 0 .6-.5 1-1 1-.3 0-.7-.2-1-.5-.7-.9-1.6-2.4-2.1-3.5-.1-.2-.1-.3-.1-.5 0-.6.5-.9 1-.9.4 0 .7.2 1 .6.4.9 1.3 2.2 1.9 3zm1.1-9.4c0 1.1-.8 1.9-1.9 1.9-1.1 0-1.9-.8-1.9-1.9 0-1 .8-1.9 1.9-1.9 1.1 0 1.9.8 1.9 1.9zm-.9 0c0-.6-.4-1-1-1s-1 .4-1 1 .5 1 1 1c.6 0 1-.5 1-1zM217.7 127c-1.4 1.1-2.9 2.1-4.4 2.9-.2.1-.4.2-.6.2-.6 0-1-.5-1-1 0-.3.2-.7.7-1 3.1-1.6 6.3-4.3 8.4-7.1.2-.3.6-.5.9-.5.5 0 1.1.4 1.1 1 0 .2-.1.4-.2.6-1 1.3-2.3 2.7-3.7 3.9.5 0 .9.3.9.9v7.6c0 .6-.5.9-1 .9s-1-.3-1-.9V127zM230.6 124.4c.2.2.3.5.3.7 0 .6-.5 1.1-1.1 1.1-.3 0-.5-.1-.8-.3-.8-.8-1.6-1.5-2.4-2.1-.3-.2-.4-.5-.4-.8 0-.5.5-1.1 1.1-1.1.2 0 .5.1.7.2.9.7 1.8 1.5 2.6 2.3zm7.6-.5c.5 0 1.1.4 1.1 1 0 .2-.1.4-.2.6-2.5 4.3-6.4 7.5-10.7 9.1-.2.1-.3.1-.5.1-.6 0-1-.5-1-1.1 0-.4.2-.7.7-.9 3.9-1.5 7.7-4.5 9.8-8.2.1-.4.5-.6.8-.6zM245 126.1c.2-.3.5-.5.8-.5.2 0 .3 0 .5.1 1.1.5 2.6 1.4 3.7 2.2.3.3.5.6.5.9 0 .6-.4 1-1 1-.2 0-.5-.1-.7-.3-1-.8-2.5-1.7-3.2-2.1-.2-.1-.4-.3-.5-.5v7.5c0 .6-.5.9-1 .9s-1-.3-1-.9v-13.2c0-.6.5-.9 1-.9s1 .3 1 .9v4.9z"/></g><g><ellipse transform="rotate(-67.604 27.498 147.3)" class="st8" cx="27.5" cy="147.3" rx="7" ry="9"/><path class="st8" d="M29 155.3c-1.6 0-3.4-.4-5-1.2-2.7-1.3-4.6-3.4-5.4-5.8-.6-1.8-.5-3.6.3-5.1 2-3.7 7.4-4.9 12.2-2.6 2.7 1.3 4.6 3.4 5.4 5.8.6 1.8.5 3.6-.3 5.1-1.3 2.4-4.1 3.8-7.2 3.8zm-3-14.8c-2.7 0-5 1.1-6.1 3.1-.7 1.3-.8 2.7-.3 4.2.7 2.1 2.5 4 4.8 5.1 4.2 2 9 1.1 10.6-2.1.7-1.3.8-2.7.3-4.2-.7-2.1-2.5-4-4.8-5.1-1.5-.6-3-1-4.5-1z"/><ellipse transform="rotate(-67.604 27.79 146.413)" class="st9" cx="27.8" cy="146.4" rx="7" ry="9.5"/><defs><ellipse id="SVGID_1_" transform="rotate(-67.921 27.86 146.574)" cx="27.9" cy="146.6" rx="6.4" ry="8.8"/></defs><clipPath id="SVGID_2_"><use xlink:href="#SVGID_1_" overflow="visible"/></clipPath><path d="M26 140.9c1.5 0 3 .4 4.4 1 2.3 1.1 4 2.8 4.6 4.7.4 1.1.3 2.3-.2 3.2-.8 1.5-2.7 2.4-5.1 2.4-1.5 0-3-.4-4.4-1-2.3-1.1-4-2.8-4.6-4.7-.4-1.1-.3-2.3.2-3.2.8-1.5 2.7-2.4 5.1-2.4m0-1.1c-2.7 0-5 1.1-6.1 3-1.7 3.1.5 7.3 4.9 9.4 1.6.8 3.3 1.1 4.9 1.1 2.7 0 5-1.1 6.1-3 1.7-3.1-.5-7.3-4.9-9.4-1.6-.7-3.3-1.1-4.9-1.1z" opacity=".2" clip-path="url(#SVGID_2_)" fill="#c4870c"/><g><path class="st1" d="M26.7 147.2l-.8 1.6-1.3-.6 2.8-5.2 1.4.7c.7.3 1.2.6 1.5.9.3.2.6.5.7.9.3.6.3 1.1 0 1.7-.3.6-.8.9-1.5 1-.7.1-1.5-.1-2.4-.5l-.4-.5zm.5-.8l.5.2c1.2.6 1.9.5 2.3-.1.3-.6-.1-1.2-1.3-1.8l-.4-.2-1.1 1.9z"/></g><path class="st9" d="M25.9 140.1c1.6 0 3.2.4 4.7 1.1 2.4 1.2 4.3 3.1 4.9 5.1.4 1.3.4 2.6-.2 3.7-.9 1.7-3 2.8-5.7 2.8-1.6 0-3.2-.4-4.7-1.1-2.4-1.2-4.3-3.1-4.9-5.1-.4-1.3-.4-2.6.2-3.7 1-1.8 3.1-2.8 5.7-2.8m0-1.1c-2.9 0-5.5 1.2-6.6 3.4-1.8 3.4.5 8.1 5.2 10.3 1.7.8 3.5 1.2 5.2 1.2 2.9 0 5.5-1.2 6.6-3.4 1.8-3.4-.5-8.1-5.2-10.3-1.7-.8-3.5-1.2-5.2-1.2z"/></g><g><ellipse transform="rotate(-55.096 262.736 100.444)" class="st8" cx="262.7" cy="100.4" rx="8" ry="10.2"/><path class="st8" d="M264.9 109.9c-2.6 0-5.4-.9-7.8-2.8-2.6-2.1-4.3-4.9-4.6-7.8-.2-2.1.4-4.1 1.6-5.6 3.1-3.6 9.4-3.6 14.1.1 2.6 2.1 4.3 4.9 4.6 7.8.2 2.1-.4 4.1-1.6 5.6-1.5 1.8-3.8 2.7-6.3 2.7zm-4.4-17.6c-2.1 0-4.1.7-5.3 2.2-1.1 1.2-1.5 2.8-1.3 4.6.3 2.5 1.7 5 4.1 6.9 4.2 3.3 9.7 3.4 12.3.3 1.1-1.2 1.5-2.8 1.3-4.6-.3-2.5-1.7-5-4.1-6.9-2.2-1.6-4.7-2.5-7-2.5z"/><ellipse transform="rotate(-55.096 263.277 99.533)" class="st9" cx="263.3" cy="99.5" rx="8" ry="10.8"/><defs><ellipse id="SVGID_3_" transform="rotate(-55.417 263.306 99.723)" cx="263.3" cy="99.7" rx="7.3" ry="10"/></defs><clipPath id="SVGID_4_"><use xlink:href="#SVGID_3_" overflow="visible"/></clipPath><path d="M260.6 92.7c2.2 0 4.6.9 6.6 2.5 2.2 1.7 3.7 4.1 3.9 6.3.1 1.4-.2 2.6-1 3.5-.9 1.1-2.4 1.7-4.3 1.7-2.2 0-4.6-.9-6.6-2.5-2.2-1.7-3.7-4.1-3.9-6.3-.1-1.4.2-2.6 1-3.5 1-1.1 2.5-1.7 4.3-1.7m0-1.2c-2.1 0-4 .7-5.2 2.1-2.6 3-1.2 8.3 3.1 11.6 2.3 1.8 5 2.7 7.4 2.7 2.1 0 4-.7 5.2-2.1 2.6-3 1.2-8.3-3.1-11.6-2.3-1.8-4.9-2.7-7.4-2.7z" opacity=".2" clip-path="url(#SVGID_4_)" fill="#c4870c"/><g><path class="st1" d="M261.8 100.2l-1.3 1.5-1.3-1 4.4-5.1 1.4 1.1c.7.5 1.2 1 1.5 1.3.3.4.5.7.6 1.1.2.7.1 1.3-.4 1.8-.5.6-1.1.8-1.9.7-.8-.1-1.6-.5-2.5-1.1l-.5-.3zm.8-.9l.5.4c1.2.9 2 1 2.6.4.5-.6.2-1.4-1-2.3l-.4-.3-1.7 1.8z"/></g><path class="st9" d="M260.6 91.8c2.4 0 5 1 7.1 2.6 2.4 1.9 4 4.4 4.2 6.9.2 1.6-.2 2.9-1.1 4-1.1 1.2-2.8 1.9-4.8 1.9-2.4 0-5-1-7.1-2.6-2.4-1.9-4-4.4-4.2-6.9-.2-1.6.2-2.9 1.1-4 1-1.2 2.7-1.9 4.8-1.9m0-1.3c-2.3 0-4.4.8-5.8 2.4-2.9 3.4-1.4 9 3.2 12.7 2.5 1.9 5.3 2.9 7.9 2.9 2.3 0 4.4-.8 5.8-2.4 2.9-3.4 1.4-9-3.2-12.7-2.5-1.9-5.4-2.9-7.9-2.9z"/></g><g><ellipse transform="rotate(-27.365 34.602 135.57)" class="st8" cx="34.6" cy="135.6" rx="10.6" ry="8.3"/><path class="st8" d="M32.6 145.1c-1.4 0-2.7-.2-4-.7-2-.8-3.6-2.3-4.4-4.2-1.8-4.6 1.3-10.4 6.9-12.9 3.2-1.4 6.6-1.6 9.4-.5 2 .8 3.6 2.3 4.4 4.2 1.9 4.6-1.3 10.4-6.9 12.9-1.8.8-3.6 1.2-5.4 1.2zm4-17.7c-1.6 0-3.2.4-4.9 1.1-5 2.2-7.8 7.2-6.2 11.2.6 1.6 1.9 2.8 3.6 3.5 2.4 1 5.5.8 8.3-.4 5-2.2 7.8-7.2 6.2-11.2-.6-1.6-1.9-2.8-3.6-3.5-1-.5-2.2-.7-3.4-.7z"/><ellipse transform="rotate(-27.365 34.026 134.633)" class="st9" cx="34" cy="134.6" rx="11.2" ry="8.3"/><defs><ellipse id="SVGID_5_" transform="rotate(-27.675 34.243 134.705)" cx="34.2" cy="134.7" rx="10.4" ry="7.5"/></defs><clipPath id="SVGID_6_"><use xlink:href="#SVGID_5_" overflow="visible"/></clipPath><path d="M36.7 127.8c2.8 0 4.9 1.2 5.7 3.1 1.3 3.2-1.4 7.6-6 9.6-1.6.7-3.2 1.1-4.7 1.1-2.8 0-4.9-1.2-5.7-3.1-1.3-3.2 1.4-7.6 6-9.6 1.6-.8 3.2-1.1 4.7-1.1m0-1.3c-1.7 0-3.5.4-5.3 1.2-5.2 2.4-8.2 7.4-6.7 11.3 1 2.6 3.7 4 6.9 4 1.7 0 3.5-.4 5.3-1.2 5.2-2.4 8.2-7.4 6.7-11.3-1-2.6-3.7-4-6.9-4z" opacity=".2" clip-path="url(#SVGID_6_)" fill="#c4870c"/><g><path class="st1" d="M33.9 136.2l.8 1.9-1.5.7-2.6-6.5 1.7-.8c.8-.4 1.5-.6 2-.7.5-.1.9-.1 1.3 0 .7.2 1.3.6 1.5 1.2.3.7.2 1.4-.3 2.1-.5.7-1.2 1.3-2.3 1.7l-.6.4zm-.4-1l.6-.3c1.4-.6 1.9-1.3 1.6-2.2-.3-.8-1.2-.9-2.6-.2l-.5.2.9 2.5z"/></g><path class="st9" d="M36.6 127c3.1 0 5.5 1.3 6.4 3.6 1.4 3.6-1.4 8.4-6.4 10.6-1.7.7-3.4 1.1-5.1 1.1-3.1 0-5.5-1.3-6.4-3.6-1.4-3.6 1.4-8.4 6.4-10.6 1.7-.7 3.4-1.1 5.1-1.1m0-1.3c-1.8 0-3.7.4-5.6 1.3-5.6 2.5-8.8 8-7.1 12.3 1.1 2.8 4.1 4.4 7.6 4.4 1.8 0 3.7-.4 5.6-1.3 5.6-2.5 8.8-8 7.1-12.3-1.1-2.9-4.1-4.4-7.6-4.4z"/></g><g><ellipse transform="rotate(-27.365 250.76 77.834)" class="st8" cx="250.8" cy="77.8" rx="13.4" ry="10.5"/><path class="st8" d="M248.2 89.8c-1.7 0-3.4-.3-5-.9-2.6-1-4.5-2.9-5.5-5.3-2.3-5.8 1.6-13 8.7-16.2 4-1.8 8.3-2 11.8-.6 2.6 1 4.5 2.9 5.5 5.3 2.3 5.8-1.6 13-8.7 16.2-2.2 1-4.5 1.5-6.8 1.5zm5.1-22.4c-2 0-4.1.5-6.2 1.4-6.4 2.8-9.9 9.2-7.9 14.2.8 2 2.4 3.5 4.6 4.4 3.1 1.3 6.9 1.1 10.6-.6 6.4-2.8 9.9-9.2 7.9-14.2-.8-2-2.4-3.5-4.6-4.4-1.3-.5-2.8-.8-4.4-.8z"/><ellipse transform="rotate(-27.365 250.03 76.649)" class="st9" cx="250" cy="76.6" rx="14.1" ry="10.5"/><defs><ellipse id="SVGID_7_" transform="rotate(-27.675 250.32 76.7)" cx="250.3" cy="76.7" rx="13.1" ry="9.5"/></defs><clipPath id="SVGID_8_"><use xlink:href="#SVGID_7_" overflow="visible"/></clipPath><path d="M253.5 66.3v1.5c3.6 0 6.4 1.5 7.4 4.1 1.6 4.2-1.8 9.7-7.6 12.4-2 .9-4.1 1.4-6.1 1.4-3.6 0-6.4-1.5-7.4-4.1-1.6-4.2 1.8-9.7 7.6-12.4 2-.9 4.1-1.4 6.1-1.4v-1.5m0 0c-2.1 0-4.4.5-6.7 1.5-6.6 3-10.3 9.4-8.4 14.3 1.3 3.2 4.7 5 8.7 5 2.1 0 4.4-.5 6.7-1.5 6.6-3 10.3-9.4 8.4-14.3-1.3-3.2-4.7-5-8.7-5z" opacity=".2" clip-path="url(#SVGID_8_)" fill="#c4870c"/><g><path class="st1" d="M249.9 78.7l1 2.4-1.9.9-3.3-8.2 2.2-1c1.1-.5 1.9-.8 2.5-.9.6-.1 1.2-.1 1.7 0 .9.2 1.6.7 1.9 1.6.4.9.2 1.8-.3 2.6-.6.9-1.5 1.6-2.8 2.2l-1 .4zm-.5-1.4l.7-.3c1.8-.8 2.4-1.7 2-2.7-.4-1-1.5-1.1-3.3-.3l-.6.3 1.2 3z"/></g><path class="st9" d="M253.2 66.8c4 0 7.1 1.7 8.3 4.6 1.9 4.7-1.8 10.8-8.2 13.7-2.1 1-4.4 1.5-6.5 1.5-4 0-7.1-1.7-8.3-4.6-1.9-4.7 1.8-10.8 8.2-13.7 2.2-1 4.4-1.5 6.5-1.5m0-1.5c-2.3 0-4.7.5-7.1 1.6-7.1 3.2-11.1 10.2-9 15.6 1.4 3.6 5.2 5.6 9.7 5.6 2.3 0 4.7-.5 7.1-1.6 7.1-3.2 11.1-10.2 9-15.6-1.4-3.6-5.2-5.6-9.7-5.6z"/></g><g><ellipse transform="rotate(-60.746 13.518 114.431)" class="st8" cx="13.5" cy="114.4" rx="10" ry="12.8"/><path class="st8" d="M16 126c-2.8 0-5.9-.9-8.6-2.6-3.5-2.2-5.9-5.6-6.7-9.1-.5-2.6 0-5.1 1.4-7.2 3.4-4.9 11.3-5.6 17.6-1.6 3.5 2.2 5.9 5.6 6.7 9.1.5 2.6 0 5.1-1.3 7.2-2.1 2.7-5.4 4.2-9.1 4.2zm-5-21.5c-3.1 0-5.9 1.2-7.5 3.5-1.2 1.7-1.5 3.7-1.1 5.9.6 3.1 2.8 6 5.9 8 5.6 3.5 12.4 3 15.3-1.1 1.2-1.7 1.5-3.7 1.1-5.9-.6-3.1-2.8-6-5.9-8-2.5-1.6-5.3-2.4-7.8-2.4z"/><ellipse transform="rotate(-60.746 14.078 113.232)" class="st9" cx="14.1" cy="113.2" rx="10" ry="13.4"/><defs><ellipse id="SVGID_9_" transform="rotate(-61.066 14.148 113.469)" cx="14.1" cy="113.5" rx="9.1" ry="12.5"/></defs><clipPath id="SVGID_10_"><use xlink:href="#SVGID_9_" overflow="visible"/></clipPath><path d="M11.1 103.5v1.6c2.5 0 5.1.8 7.5 2.3 3 1.9 5.1 4.6 5.6 7.4.3 1.7.1 3.2-.8 4.4-1.2 1.7-3.4 2.7-6.1 2.7-2.5 0-5.1-.8-7.5-2.3-3-1.9-5.1-4.6-5.6-7.4-.3-1.7-.1-3.2.8-4.4 1.2-1.7 3.4-2.7 6.1-2.7v-1.6m0 0c-3.1 0-5.9 1.1-7.4 3.3-2.9 4.1-.5 10.4 5.3 14.1 2.7 1.7 5.6 2.5 8.3 2.5 3.1 0 5.9-1.1 7.4-3.3 2.9-4.1.5-10.4-5.3-14.1-2.7-1.7-5.7-2.5-8.3-2.5z" opacity=".2" clip-path="url(#SVGID_10_)" fill="#c4870c"/><g><path class="st1" d="M12.5 114l-1.5 2-1.6-1 4.8-6.9 1.9 1.2c.9.6 1.6 1.1 2 1.5.4.4.7.9.9 1.3.3.9.2 1.6-.2 2.3-.5.7-1.3 1.1-2.3 1.1s-2.1-.4-3.2-1.1l-.8-.4zm.8-1.2l.6.4c1.6 1 2.6 1 3.2.2.6-.8.1-1.8-1.5-2.8l-.6-.4-1.7 2.6z"/></g><path class="st9" d="M10.9 103.9c2.7 0 5.5.9 8 2.5 3.2 2 5.5 5 6.1 8 .4 1.9.1 3.7-.9 5.1-1.4 1.9-3.9 3-6.9 3-2.7 0-5.5-.9-8-2.5-3.2-2-5.5-5-6.1-8-.4-1.9-.1-3.7.9-5.1 1.4-1.9 3.9-3 6.9-3m0-1.6c-3.4 0-6.5 1.3-8.2 3.7-3.2 4.5-.7 11.4 5.6 15.4 2.9 1.8 6 2.7 8.9 2.7 3.4 0 6.5-1.3 8.2-3.7 3.2-4.5.7-11.4-5.6-15.4-2.9-1.8-6-2.7-8.9-2.7z"/></g><path class="st3" d="M76.7 146.8c-6.3 0-12.2-1.9-17.4-5.6-5.4-3.9-8.9-10.2-10.1-18.8-.1-.7.1-1.4.6-2 .5-.5 1.1-.8 1.9-.8H64c1.2 0 2.2.8 2.4 2 1.1 5.4 4.3 8 9.9 8 2.4 0 4.3-.5 5.7-1.4 1.3-.8 2.1-1.9 2.6-3.3.6-1.6 1-3.4 1.2-5.3.1-2 .1-3.1.1-5 .1-4.5-.6-8.1-2-10.8-.6-1-1.5-1.8-2.7-2.4-1.3-.5-3.1-.8-5.2-.8-1.8 0-3.5.4-4.9 1.2-1.4.8-2.8 2.4-4 4.6-.4.8-1.3 1.3-2.1 1.3H53.1c-1.4 0-2.4-1.1-2.4-2.4V59.8c0-1.4 1.1-2.4 2.4-2.4h45.8c1.3 0 2.4 1.1 2.4 2.4v12.3c0 1.3-1.1 2.4-2.4 2.4H67.2V86c3.4-1.8 7.2-2.7 11.3-2.7 3.6.1 7 .7 10 1.9l.1.1c2.8 1.3 5.2 3 7 5 2.6 2.6 4.5 5.6 5.7 9.1.6 1.9 1 4.1 1.3 6.7.2 2.5.4 5.7.4 9.4 0 5.5-.4 9.1-1.3 12.5-.9 3.3-2.5 6.2-4.6 8.8-1.8 2.4-4.6 4.7-8 6.7-3.5 2.1-7.7 3.3-12.4 3.3zm-25.1-25.2c-.1 0-.3.1-.4.2-.1.1-.1.2-.1.4 1.2 8 4.3 13.9 9.3 17.5 4.9 3.5 10.4 5.3 16.3 5.3 4.4-.1 8.2-1.1 11.4-3 3.3-1.9 5.8-4 7.5-6.2 2-2.4 3.4-5 4.2-8 .8-3.2 1.2-6.7 1.2-12 0-3.6-.1-6.7-.4-9.2-.2-2.5-.6-4.6-1.2-6.3-1.1-3.1-2.8-5.9-5.3-8.3-1.7-1.8-3.8-3.4-6.5-4.6-2.8-1.1-5.9-1.7-9.3-1.8-4.3 0-8.2 1.1-11.7 3.2-.3.2-.7.2-1 0s-.5-.5-.5-.9V73.6c0-.5.4-1 1-1h32.7c.3 0 .5-.2.5-.5V59.8c0-.3-.2-.5-.5-.5H53.1c-.3 0-.5.2-.5.5v45.4c0 .3.2.5.5.5h11.6c.2 0 .3-.1.4-.2 1.4-2.5 3-4.3 4.7-5.3 1.8-1 3.8-1.5 5.9-1.5 2.4 0 4.4.3 6.1 1 1.7.9 2.8 1.9 3.6 3.3 1.6 3 2.3 7 2.3 11.8 0 2 0 3-.1 5.1-.2 2.1-.6 4.1-1.3 5.9-.6 1.7-1.7 3.1-3.3 4.2-1.7 1.1-4 1.7-6.8 1.7-6.6-.1-10.6-3.3-11.9-9.6 0-.2-.2-.4-.5-.4H51.6z"/><g><path class="st1" d="M104.1 64.1c-.1 1.2-.3 2.3-.8 3.3-2.3 4.7-8.5 3-8.7-.3-8.4 2-10.1-4.2-10.1-4.2-1.2 1.5-3.5 3.4-7.7 3.2-4.1-.2-8.4-2-8.9-4-1 1.5-1.8 1.8-3 2-1.5.3-2.9-.5-3.9-1.2-.9 1.5-2.5 2.6-5.1 2.6-3.3 0-4.5-2.7-4.5-4.9 0-6.1 7.9-6.8 12.2-6.7 10.5.1 21.1-.4 31.5 1.2 2.2.3 4.4 1 6.1 2.4 2.1 1.5 3 4.1 2.9 6.6z"/><path class="st3" d="M98.8 71.3c-.4 0-.8 0-1.2-.1-1.8-.4-3.3-1.5-3.8-2.9-5.8 1-8.5-1.8-9.6-3.7-1.9 1.8-4.4 2.6-7.5 2.5-3.3-.2-7.2-1.4-9-3.3-.9.9-1.7 1.1-2.7 1.3-1.4.3-2.7-.2-3.8-.8-1.2 1.5-3.1 2.3-5.3 2.3-3.8 0-5.4-3-5.4-5.9 0-1.9.6-3.4 1.9-4.6 2.1-2.1 6-3.1 11.4-3.1h7.6c7.9 0 16.1 0 24.1 1.2 2.8.4 5 1.3 6.6 2.6 2 1.6 3.2 4.5 3 7.5-.1 1.3-.4 2.6-.9 3.7-1.3 2.4-3.5 3.3-5.4 3.3zm-4.2-5.2c.2 0 .4.1.6.2.2.2.4.4.4.7.1 1 1.1 1.9 2.4 2.2 1.4.3 3.4-.2 4.4-2.3.4-.8.7-1.9.7-2.9.1-2.4-.8-4.6-2.3-5.8-1.3-1.1-3.2-1.8-5.6-2.2-7.8-1.2-15.9-1.2-23.8-1.1h-7.7c-4.8-.1-8.3.8-10 2.5-.9.9-1.3 1.9-1.3 3.2 0 .7.2 4 3.5 4 2 0 3.4-.7 4.2-2.1.1-.2.4-.4.6-.5.3-.1.6 0 .8.1.9.6 2 1.2 3.1 1 1-.2 1.5-.4 2.3-1.6.2-.3.6-.5 1-.4.4.1.7.3.8.7.4 1.3 4 3.1 8 3.3 3 .1 5.3-.8 6.9-2.9.2-.3.6-.4 1-.4.4.1.7.4.8.7.1.2 1.6 5.3 8.9 3.5.1.1.2.1.3.1zm9.5-2z"/></g><g><path class="st1" d="M26.5 50.5c-25 2-28.2 21.8-20.4 32.1-4.6 8.9 6.1 19.5 26 16.7l9.6 8.2-1.2-7.4c6.8.3 15.1-6.3 12.8-15.7 9.4-12.1 4.9-36.4-26.8-33.9z"/><path class="st3" d="M41.8 108.3c-.2 0-.4-.1-.5-.2l-9.3-8C18.2 102 9.7 97.5 6.3 92.8 4.1 89.6 3.7 86 5.2 82.7c-4-5.6-4.8-13.2-1.9-19.6 2-4.5 7.7-12.2 23.2-13.4 19.3-1.5 26.8 6.8 29.5 11.8 3.9 7.2 3.2 16.4-1.8 23 .9 4.1 0 8-2.6 11.2-2.5 3.1-6.4 5-10.1 5.2l1.1 6.5c.1.3-.1.7-.4.8-.1.1-.3.1-.4.1zm-9.6-9.7c.2 0 .4.1.5.2l8 6.8-.9-5.3c0-.2 0-.5.2-.7.2-.2.4-.3.6-.3 3.5.2 7.4-1.6 9.8-4.6 2.4-2.9 3.1-6.5 2.2-10.2-.1-.2 0-.5.1-.7 4.7-6.1 5.5-15 1.9-21.6-2.6-4.7-9.6-12.4-28-11l-.1-.8.1.8C15.7 52.1 8 56.6 4.7 63.8 2 69.8 2.8 77 6.8 82.2c.2.2.2.5 0 .8-1.5 2.9-1.2 6.1.7 8.9 3.2 4.4 11.2 8.5 24.5 6.7h.2z"/></g><g><path class="st3" d="M19.2 61.4c0-.4.4-.6.7-.6s.7.2.7.6v1.4h.6c.4 0 .5.3.5.6s-.2.6-.5.6h-.6v5.2h.7c.4 0 .5.3.5.7 0 .3-.2.7-.5.7h-6.5c-.4 0-.5-.3-.5-.7 0-.3.2-.7.5-.7h1V64H15c-.4 0-.5-.3-.5-.6s.2-.6.5-.6h.9v-1.4c0-.4.4-.6.7-.6s.7.2.7.6v1.4h1.8v-1.4zm-2.3 9.5c.4 0 .8.3.8.7 0 .1 0 .3-.1.4-.3.6-.9 1.4-1.4 1.9-.2.2-.4.3-.7.3-.4 0-.8-.3-.8-.7 0-.2.1-.4.3-.7.4-.4.8-.9 1.2-1.5.2-.3.5-.4.7-.4zm.5-6.9v1h1.8v-1h-1.8zm0 3.1h1.8v-1h-1.8v1zm1.8 1.1h-1.8v1h1.8v-1zm1.8 3.9c.1.2.2.3.2.5 0 .4-.4.8-.8.8-.2 0-.5-.1-.6-.4-.2-.4-.6-.8-.8-1.1-.1-.2-.2-.3-.2-.5 0-.4.3-.7.7-.7.2 0 .5.1.7.3.2.3.5.8.8 1.1zm4.9-10.8c1.3 0 1.7.5 1.7 1.6v9.8c0 1.1-.7 1.5-1.7 1.5-.3 0-.6 0-.9-.1-.5-.1-.7-.4-.7-.8s.3-.8.7-.8h.7c.2 0 .3-.1.3-.3v-2.7h-2c-.2 1.9-.7 3.1-1.4 4.3-.2.3-.5.4-.8.4-.4 0-.8-.3-.8-.7 0-.2.1-.3.2-.5 1-1.5 1.4-3.2 1.4-7.2v-3c0-1.1.4-1.6 1.7-1.6h1.6zm.1 4.9h-1.9c0 .7 0 1.4-.1 2.1h2v-2.1zm-1.5-3.4c-.3 0-.3.1-.3.4v1.7H26v-1.7c0-.3-.1-.4-.4-.4h-1.1zM33.7 66.4v7.4c0 .4-.4.6-.8.6s-.8-.2-.8-.6v-11c0-1.1.4-1.6 2-1.6h1.6c1.6 0 1.9.5 1.9 1.6v2c0 .5-.1 1-.5 1.2-.4.3-1 .3-1.5.3h-1.9zm2.3-3.6c0-.3-.1-.4-.5-.4h-1.4c-.4 0-.5.1-.5.4v.4H36v-.4zm-.5 2.4c.4 0 .5-.1.5-.4v-.4h-2.3v.8h1.8zm1.6 7.5c-1.2 0-1.7-.5-1.7-1.5v-2.3c0-1.1.5-1.5 1.7-1.5h2.3c1.2 0 1.7.5 1.7 1.5v2.3c0 1.2-.6 1.5-1.7 1.5h-2.3zm2.5-3.8c0-.3-.1-.3-.4-.3h-1.9c-.3 0-.4.1-.4.3v.5h2.7v-.5zm-.4 2.5c.3 0 .4-.1.4-.3v-.5h-2.7v.5c0 .3.1.3.4.3h1.9zm1.7-5c-1.6 0-2-.5-2-1.6v-2c0-1.1.4-1.6 2-1.6h1.7c1.6 0 2 .5 2 1.6v9.5c0 1.4-.6 1.9-1.9 1.9-.4 0-.7 0-1.1-.1-.4-.1-.7-.4-.7-.8s.3-.8.8-.8h.1c.2 0 .4.1.6.1.3 0 .5-.1.5-.5v-5.8h-2zm2-3.6c0-.3-.1-.4-.5-.4H41c-.4 0-.5.1-.5.4v.4h2.4v-.4zm0 1.6h-2.4v.4c0 .3.1.4.5.4h2v-.8zM18.1 78.9c1.1 0 1.6.4 1.6 1.2 0 .2 0 .4-.1.7-.3 1-.7 2-1.1 2.9.9.8 1.3 2 1.3 3.1 0 1.7-.7 2.3-1.9 2.3h-.6c-.4-.1-.6-.4-.6-.7 0-.4.2-.8.6-.8h.4c.3 0 .4-.2.4-.8 0-.7-.3-1.6-1-2.3-.2-.2-.3-.4-.3-.7 0-.2.1-.4.2-.7.3-.7.6-1.6.9-2.4v-.2c0-.1-.1-.2-.3-.2h-.7c-.3 0-.3.1-.3.4v11c0 .4-.4.6-.8.6s-.8-.2-.8-.6V80.3c0-1 .4-1.4 1.6-1.4h1.5zm6.6 6.6c.1.5.3 1.1.5 1.6.5-.4 1-.8 1.4-1.2.2-.2.4-.3.6-.3.4 0 .8.3.8.7 0 .2-.1.3-.2.5-.6.5-1.2 1-1.8 1.4.5.8 1.2 1.5 1.9 2 .3.2.4.5.4.7 0 .4-.3.7-.7.7-.2 0-.4-.1-.6-.2-1.8-1.3-3.1-3.5-3.7-6.2h-.9v4.4c.4-.1.9-.2 1.3-.4h.3c.4 0 .7.4.7.7 0 .2-.1.5-.5.6-1.2.5-2.9.9-4.2 1.2h-.1c-.5 0-.7-.4-.7-.8 0-.3.2-.6.6-.7.4-.1.8-.1 1.2-.2v-9.8c0-1.1.5-1.6 1.8-1.6h2.8c1.3 0 1.8.5 1.8 1.6v3.4c0 1.2-.6 1.5-1.8 1.5h-.9zm.9-4.8c0-.3-.1-.4-.4-.4h-2.4c-.3 0-.4.1-.4.4v.9h3.2v-.9zm-.4 3.4c.3 0 .4-.1.4-.4v-.9h-3.2v1.3h2.8zM39.2 90.3c.5.1 1.2.1 1.9.1 1 0 2.1-.1 3.1-.2h.1c.5 0 .8.4.8.8 0 .3-.2.7-.7.7-1 .1-2.1.1-3.3.1-3.4 0-5.1-.7-6.3-2.5-.4.9-1 1.7-1.5 2.3-.2.2-.4.3-.7.3-.4 0-.8-.3-.8-.7 0-.2.1-.3.2-.5 1.1-1.3 1.9-2.9 2.3-4.5.1-.4.4-.5.7-.5.4 0 .8.3.8.7v.2c-.1.4-.2.8-.4 1.2.5.9 1.2 1.6 2.1 2v-5.3h-3.4c-.4 0-.6-.3-.6-.7 0-.3.2-.7.6-.7h8.4c.4 0 .6.3.6.7 0 .3-.2.7-.6.7h-3.4v1.9h3.2c.4 0 .6.3.6.7 0 .3-.2.7-.6.7h-3.2v2.5zM37.5 79c0-.4.4-.6.8-.6s.8.2.8.6v1.1h3.6c1.4 0 1.9.5 1.9 1.5v1c0 .4-.4.6-.8.6s-.8-.2-.8-.6v-.8c0-.3-.1-.4-.5-.4h-8.3c-.4 0-.5.1-.5.4v.8c0 .4-.4.7-.8.7s-.8-.2-.8-.7v-1.1c0-1 .5-1.5 1.9-1.5h3.5v-1z"/></g><g><path class="st1" d="M141 54.4c-5.5-.6-11.4-.1-15.9 3-1.2.9-2.3 2-2.9 3.4-1.4 3.1 1.3 6.9 4.7 5.4.4-.2.7-.4 1-.6 1.5 1.4 4.1 2.3 7 2.1 1.8-.1 3.4-.6 4.7-1.3 1.1 1 2.6 1.7 4.3 1.8 1 .1 1.9 0 2.7-.3.7 1 1.8 1.9 3.1 2.4 4 1.6 8.7-.6 7.9-5.4-1-6-7.1-8.7-12.5-9.8-1.3-.4-2.7-.6-4.1-.7z"/><path class="st3" d="M152.4 71.8c-1 0-2-.2-3-.6-1.2-.5-2.3-1.2-3.1-2.2-.8.2-1.6.2-2.4.1-1.6-.1-3.1-.7-4.3-1.6-1.3.6-2.9 1-4.5 1.1-2.8.2-5.4-.5-7.1-1.8l-.6.3c-1.8.8-3.7.4-5-1-1.5-1.5-1.9-3.9-1-5.8.7-1.5 1.8-2.8 3.3-3.8 4.1-2.8 9.8-3.9 16.6-3.2 1.4.1 2.8.4 4.2.7 7.7 1.6 12.4 5.3 13.3 10.6.4 2.3-.3 4.4-2 5.7-1.4 1-2.9 1.5-4.4 1.5zm-5.8-4.9c.3 0 .6.2.8.4.6.9 1.5 1.6 2.6 2 1.9.8 3.9.6 5.2-.5 1.1-.9 1.6-2.2 1.3-3.8-1-6-7.8-8.2-11.7-9-1.4-.3-2.7-.5-4-.6-4.4-.5-10.6-.4-15.2 2.9-1.1.8-2 1.8-2.6 3-.5 1.2-.3 2.6.6 3.6.8.8 1.8 1 2.8.5.3-.1.6-.3.8-.5.4-.3 1-.3 1.3 0 1.3 1.3 3.7 2 6.2 1.8 1.6-.1 3.1-.5 4.3-1.2.4-.2.8-.2 1.2.1 1 .9 2.3 1.4 3.7 1.5.8.1 1.6 0 2.4-.2h.3z"/></g><g><path class="st1" d="M216.8 63.6c-1.2-2.6-3.7-4.7-6.2-6.1-4-2.2-8.8-3.3-13.3-3.6-4-.3-8.2 0-12.1 1.2-4.3 1.4-11.5 6.3-9.7 11.8.6 1.9 3.4 2.8 6.1 1.9 1.8-.6 3.2-1.8 3.7-3.2 1.8 1.4 3.9 2 6.3 1.9 2-.1 4-1 5.2-2.2 1.2 1.7 3.1 3.4 5.7 3.7 1.5.2 3.5-.5 5-1.6.4 1.5 2.1 2.8 4.3 3.4 3 1 5.9-.5 5.9-3.9-.1-1.1-.4-2.2-.9-3.3z"/><path class="st3" d="M213.6 72.2c-.7 0-1.4-.1-2.1-.3-1.9-.6-3.5-1.7-4.4-3-1.5.9-3.2 1.3-4.7 1.1-2.6-.3-4.5-1.8-5.7-3.3-1.4 1-3.2 1.7-5 1.8-2.2.1-4.2-.3-6-1.4-.8 1.2-2.1 2.2-3.7 2.7-1.5.5-3.1.5-4.4.1-1.5-.5-2.5-1.4-2.9-2.6-.6-1.8-.4-3.6.5-5.4 2-3.9 6.9-6.7 9.8-7.6 3.6-1.2 7.8-1.6 12.5-1.3 3.6.2 8.9 1.1 13.7 3.7 1.8 1 5 3.1 6.6 6.5.6 1.2.9 2.5.9 3.8 0 1.8-.7 3.3-1.9 4.2-1 .7-2.1 1-3.2 1zm-6.1-5.7c.1 0 .2 0 .3.1.3.1.5.3.6.7.3 1.1 1.8 2.2 3.6 2.8 1.3.4 2.7.3 3.5-.3.7-.5 1.1-1.4 1.1-2.6 0-1-.2-2-.7-3-1-2.1-3.1-4.2-5.8-5.6-4.5-2.4-9.5-3.2-12.9-3.5-4.4-.3-8.4.1-11.7 1.2-3.1 1-7.2 3.7-8.7 6.7-.7 1.3-.8 2.6-.4 3.9.2.6.8 1.1 1.6 1.4 1 .3 2.1.3 3.2-.1 1.5-.5 2.7-1.5 3.1-2.6.1-.3.4-.5.7-.6.3-.1.6 0 .9.2 1.7 1.3 3.5 1.8 5.6 1.7 1.7-.1 3.5-.9 4.6-2 .2-.2.5-.3.8-.3.3 0 .6.2.7.4.9 1.4 2.6 3 5 3.3 1.2.1 2.9-.4 4.3-1.4.1-.4.3-.4.6-.4z"/></g><g><path class="st1" d="M167.1 8.5c.5.9 1.3 1.8 1.5 1.9 1.6 1.5 4.4 1.5 6 0 .6-.5 1-1.1 1.3-1.8 0-.1.4-.9.3-.9 0 0 2 1.5 4.5-.5 0 0 2 2.5 4.5 1 1.3 1.3 3.5 2.5 5.1 1 1.5-1.4.9-3.8-.3-5.1-.2-.3-.5-.5-.7-.7-2-1.7-4.7-2.5-7.3-2.6-2.9-.1-5.5.8-8.2 1.6-2.4.7-5.1.7-7.5.1-2.5-.7-4.9-1.6-7.5-1.6-2.9 0-6 .9-7.4 3.7-.6 1.3-.4 3 .9 3.8h.1c1.7 1.1 3.7 0 5.4-.9-.1-.1 4.1 4.2 9.3 1z"/><path class="st3" d="M171.7 12.3c-1.3 0-2.6-.4-3.6-1.3-.2-.2-.8-.8-1.3-1.5-4.4 2.3-8-.1-9.2-1.1-1.6.9-3.8 1.9-5.7.7-1.5-1-2-3.1-1.2-4.8 1.3-2.6 4.1-4.1 8-4.1 2.2 0 4.2.6 6.1 1.1.5.2 1.1.3 1.7.5 2.3.6 4.8.6 7.1-.1l1-.3C177 .7 179.3 0 182 .1c2.2.1 5.3.6 7.7 2.7.3.3.6.5.8.8 1.5 1.7 2 4.6.2 6.2-1.7 1.6-4 .8-5.8-.7-1.8.8-3.5-.1-4.4-.9-1.5 1-3 .9-3.9.6 0 .1-.1.1-.1.2-.4.9-.9 1.6-1.5 2.1-.8.7-2.1 1.2-3.3 1.2zm-4.6-4.6h.2c.2.1.4.2.5.4.4.8 1.2 1.6 1.3 1.7 1.4 1.2 3.7 1.3 5 0a5 5 0 0 0 1.1-1.6c.2-.4.3-.6.3-.7 0-.1.1-.3.1-.4.2-.3.7-.4 1-.2.1 0 1.6 1.1 3.6-.5.2-.1.3-.2.5-.2s.4.1.5.3c.1.1 1.6 1.9 3.5.8.3-.2.7-.1.9.1.9.9 2.8 2.2 4.1 1 1.2-1.1.5-3.1-.3-4.1l-.7-.7c-2.1-1.8-4.9-2.3-6.8-2.4-2.4-.1-4.6.6-6.9 1.3l-1 .3c-2.6.7-5.3.8-7.9.1-.6-.2-1.1-.3-1.7-.5-1.9-.6-3.7-1.1-5.6-1.1-1.9 0-5.4.5-6.7 3.3-.4.9-.3 2.2.6 2.9 1.3.9 2.9.1 4.7-.9.3-.2.7-.1.9.1.2.2 3.9 3.8 8.5.9 0 .2.2.1.3.1zm8.7.6zm0 0zm0 0zm-.1-.1l.1.1c0-.1-.1-.1-.1-.1z"/></g><g><path class="st1" d="M111.2 7c-.1.1 2.8 1.3 3 1.3 2.3.6 6.9 1 8.4-.9 1.9-2.5-.5-5.4-4.5-6.1-3.5-.5-6.7.1-9.9 1.6-2.3 1.1-4.5.8-6.8-.3C99.2 1.5 96.7.9 94.3.9c-2.5 0-5.6.6-7.6 2.2-1.2 1.1-1.7 2.8-.8 4.2.8 1.1 2.1 1.3 3.4 1 .5-.1 1.6-.7 2.8-2 0 0 2 3 7.4 1 0 0 4.9 4.8 11.7-.3z"/><path class="st3" d="M105 10.1c-2.8 0-4.8-1.3-5.6-2-3.5 1.2-5.7.4-6.9-.5-.1-.1-.2-.2-.4-.3C91 8.3 90 8.8 89.5 9c-1.8.5-3.3 0-4.2-1.2-1.1-1.6-.8-3.8.9-5.2C88.8.4 93 .2 94.3.2c2.5 0 5.1.6 7.5 1.8 2.2 1.1 4.1 1.2 6.1.3C111.5.7 114.8.2 118.3.7c2.6.4 4.7 1.8 5.5 3.6.5 1.2.3 2.5-.5 3.6-1.9 2.5-7.3 1.7-9.2 1.2 0 0-1.7-.6-2.8-1.2-2.4 1.6-4.5 2.2-6.3 2.2zm-5.5-3.6c.2 0 .4.1.5.2.2.2 4.5 4.3 10.7-.3.3-.2.7-.2.9 0 .5.2 2.5 1.1 2.7 1.2 2.4.7 6.4.8 7.6-.7.5-.7.6-1.4.3-2.2-.5-1.3-2.2-2.4-4.3-2.7-3.2-.5-6.2 0-9.5 1.5-2.4 1.1-4.8 1-7.4-.3-2.2-1.1-4.5-1.7-6.8-1.7-1.1 0-4.9.1-7.1 2.1-.9.8-1.4 2.1-.6 3.2.7 1 1.9.8 2.6.7.3-.1 1.4-.6 2.5-1.8.2-.2.5-.3.8-.2l.3.3c.1.1 1.8 2.4 6.6.7.1.1.2 0 .2 0z"/></g><g><path class="st1" d="M137.9.8c.8 0 1.6.1 2.3.2 2.3.4 7.2 1.7 6.5 4.8-.3 1.2-1.3 1.8-2.5 1.9-.4 0-1.8-.2-2.5-.6-1.7 1.1-4.8 1.8-7.6-.6-1.5 1-3.2 1.9-4.4.6-1.4-1.4 0-3.3 1.2-4.2 2-1.5 4.5-2.1 7-2.1z"/><path class="st3" d="M138.2 8.8c-1.4 0-2.8-.4-4.2-1.5-1.2.8-3.3 1.8-4.9.2-.6-.6-.8-1.3-.8-2 .1-1.3 1.1-2.6 2.1-3.3 2-1.5 4.5-2.3 7.3-2.3h.1c.8 0 1.6.1 2.5.2 1.5.3 5.2 1.1 6.6 3.1.5.8.7 1.6.5 2.6-.3 1.4-1.5 2.3-3.2 2.5-.5 0-1.6-.1-2.6-.5-.9.7-2.1 1-3.4 1zm-4.1-3.1c.2 0 .4.1.5.2 2.4 2.1 5.1 1.6 6.7.6.2-.2.5-.2.8 0 .6.4 1.8.6 2.1.5.6 0 1.6-.3 1.9-1.3.1-.5 0-1-.3-1.4-.9-1.3-3.5-2.2-5.6-2.5-.7-.1-1.5-.2-2.2-.2-1.8 0-4.3.3-6.5 2-.7.5-1.4 1.4-1.5 2.2 0 .3.1.6.4.9.7.7 1.7.5 3.5-.7-.1-.2.1-.3.2-.3z"/></g><g><path class="st1" d="M38.9 48.1c-1-.6-2.1-.9-3.2-1.1-4.8-.8-9.8-.4-14.5.6-4.5.9-8.8 2.4-12.6 5-3.2 2.2-6.8 5.8-7.2 9.9-.3 3.1 2.8 4.5 5.2 3.1 2.3-1.3 3.4-3.9 3.7-6.4 4.4.7 8.8-.3 12.3-4.3 2 1 5.4 1.5 8.9 0s3.5-3 3.5-3 1.9 1.6 3.8 1.2c2.6-.6 2-3.8.1-5z"/><path class="st3" d="M4.6 66.9c-.8 0-1.6-.2-2.3-.7C1 65.4.4 64 .5 62.4.9 57.6 5.4 53.8 8 52c3.4-2.4 7.6-4.1 12.9-5.1 5.5-1.1 10.4-1.3 14.8-.6 1.1.2 2.4.5 3.5 1.2 1.4.9 2.2 2.6 2 4-.2 1.2-1.1 2.1-2.4 2.5-1.4.3-2.7-.2-3.6-.7-.5.7-1.5 1.6-3.5 2.5-3.5 1.5-6.9 1.1-9 .2-3.1 3.3-7.2 4.7-11.8 4.2-.5 2.9-2 5.1-4 6.2-.7.3-1.5.5-2.3.5zm25.8-19.5c-2.8 0-5.9.3-9.1 1-5.1 1-9.1 2.6-12.3 4.9-2.4 1.7-6.5 5.2-6.9 9.3-.1 1 .3 1.9 1.1 2.4.9.6 2 .6 3 0 2.4-1.3 3.1-4.2 3.3-5.8 0-.2.1-.4.3-.5.2-.1.4-.2.6-.1 4.7.8 8.6-.6 11.6-4 .2-.3.6-.3.9-.2 1.7.9 5 1.4 8.2 0 2.8-1.2 3-2.3 3-2.3 0-.3.2-.6.5-.7.3-.1.6-.1.8.1.5.4 1.9 1.3 3.1 1 .7-.2 1.1-.6 1.2-1.2.1-.9-.4-1.9-1.2-2.5l.4-.7-.4.7c-.9-.6-2-.8-3-.9-1.6-.4-3.3-.5-5.1-.5z"/></g><g><path class="st1" d="M61.8 119.5c1.1 1.9-.1 4.8-2.6 5.2-2.7.4-3.7-1.2-3.7-1.2-.8 3.3-3.4 5-6.1 3.7-.6-.3-1-.7-1.4-1.2-1.1-1.5-1.2-3.6-.1-5.3 1.1-1.7 3.2-2.5 5.3-2.8 2.4-.3 7-1 8.6 1.6z"/><path class="st3" d="M51.2 128.6c-.8 0-1.5-.2-2.3-.6-.7-.3-1.2-.8-1.7-1.5-1.4-1.9-1.4-4.4-.1-6.4 1.1-1.7 3.2-2.8 6-3.2h.2c2.6-.4 7.6-1 9.4 2.1.7 1.2.8 2.7.1 4.1-.7 1.4-1.9 2.3-3.4 2.5-1.5.2-2.6-.1-3.4-.5-.6 1.4-1.6 2.5-2.8 3-.7.4-1.3.5-2 .5zm5.8-10c-1.3 0-2.6.2-3.5.3h-.2c-1.5.2-3.5.8-4.6 2.3-.8 1.3-.8 2.9.1 4.1.3.4.6.7 1 .9.9.4 1.7.5 2.5.1 1-.5 1.9-1.6 2.2-3.1.1-.4.4-.7.8-.7.4-.1.8.1 1 .4 0 0 .8 1 2.8.8.8-.1 1.5-.6 1.9-1.4.4-.8.4-1.6 0-2.3-.7-1.1-2.3-1.4-4-1.4z"/></g><g><path class="st1" d="M146.2 123.4c-1.3-.4-2.8.2-4 1.1-1.1.9-2.1 1.7-3.5 1.9-1.7.3-3.5.2-5.2.2-2.2 0-4.6 1.2-4.2 3.8.4 2.6 3.2 2.8 5.2 1.8 2.6 2 5.6 2 7.7 1 2-1 2.6-3.6 2.6-3.6 2.3 0 4.4-2.5 3.2-4.7-.5-.8-1.1-1.3-1.8-1.5z"/><path class="st3" d="M139.2 134.9c-1.5 0-3.2-.4-4.8-1.5-1.4.5-3 .5-4.1 0-.7-.4-1.7-1.2-1.9-2.8-.2-1.2.1-2.3.8-3.2.9-1.1 2.5-1.7 4.3-1.7h1.2c1.3 0 2.6 0 3.8-.2 1.1-.2 2-.8 3.1-1.7 1.6-1.3 3.4-1.7 4.9-1.3 1 .3 1.8 1 2.3 2 .7 1.2.6 2.7-.2 3.9-.7 1.1-1.9 1.9-3.2 2.2-.3 1-1.1 2.7-2.9 3.5-.7.5-1.9.8-3.3.8zm-4.6-3.7c.2 0 .4.1.6.2 2.4 1.9 5.1 1.7 6.6.9 1.6-.8 2-2.9 2-2.9.1-.5.5-.8 1-.8.9 0 1.7-.5 2.2-1.3.2-.4.5-1.1.1-2-.3-.6-.7-.9-1.2-1.1-.8-.3-2.1.1-3.1.9-1.1.9-2.3 1.8-4 2.1-1.4.2-2.8.2-4.2.2h-1.1c-1.2 0-2.2.4-2.8 1.1-.4.4-.5.9-.4 1.6.1.6.4 1.1.9 1.3.7.4 1.9.3 2.9-.2h.5z"/></g><g><path class="st0" d="M247.7 36.5c-.4 0-.7-.3-.7-.7V2.9c0-.4.3-.7.7-.7s.7.3.7.7v32.9c0 .4-.3.7-.7.7z"/><path class="st0" d="M261.9 28.3c-.1 0-.3 0-.4-.1L233 11.8c-.4-.2-.5-.7-.3-1 .2-.4.7-.5 1-.3l28.5 16.4c.4.2.5.7.3 1-.1.3-.4.4-.6.4z"/><path class="st0" d="M233.4 28.3c-.3 0-.5-.1-.6-.4-.2-.4-.1-.8.3-1l28.5-16.4c.4-.2.8-.1 1 .3.2.4.1.8-.3 1l-28.5 16.4c-.1.1-.3.1-.4.1zM247.7 9c-.2 0-.4-.1-.5-.2l-3.1-3.1c-.3-.3-.3-.8 0-1 .3-.3.8-.3 1 0l2.5 2.5 2.5-2.5c.3-.3.8-.3 1 0 .3.3.3.8 0 1.1L248 8.9s-.2.1-.3.1zM247.7 16.3c-.2 0-.4-.1-.5-.2L242 11c-.3-.3-.3-.8 0-1.1.3-.3.8-.3 1 0l4.6 4.6 4.6-4.6c.3-.3.8-.3 1 0 .3.3.3.8 0 1.1l-5.2 5.2c0 .1-.2.1-.3.1zM252.8 29c-.2 0-.4-.1-.5-.2l-4.6-4.6-4.6 4.6c-.3.3-.8.3-1 0-.3-.3-.3-.8 0-1.1l5.2-5.2c.3-.3.8-.3 1 0l5.2 5.2c.3.3.3.8 0 1.1-.3.2-.5.2-.7.2z"/><path class="st0" d="M237.3 20.1c-.3 0-.6-.2-.7-.6-.1-.4.1-.8.5-.9l6.3-1.7-1.7-6.3c-.1-.4.1-.8.5-.9.4-.1.8.1.9.5l1.9 7.1c.1.4-.1.8-.5.9l-7.1 1.9h-.1zM252.8 29c-.3 0-.6-.2-.7-.6l-1.9-7.1c-.1-.2 0-.4.1-.6.1-.2.3-.3.5-.3l7.1-1.9c.4-.1.8.1.9.5.1.4-.1.8-.5.9l-6.3 1.7 1.7 6.3c.1.4-.1.8-.5.9-.3.2-.3.2-.4.2z"/><path class="st0" d="M242.5 29h-.2c-.4-.1-.6-.5-.5-.9l1.7-6.3-6.3-1.7c-.4-.1-.6-.5-.5-.9.1-.4.5-.6.9-.5l7.1 1.9c.2.1.4.2.5.3.1.2.1.4.1.6l-1.9 7.1c-.3.2-.6.4-.9.4zM258 20.1h-.2l-7.1-1.9c-.4-.1-.6-.5-.5-.9l1.9-7.1c.1-.4.5-.6.9-.5.4.1.6.5.5.9l-1.7 6.3 6.3 1.7c.4.1.6.5.5.9 0 .4-.3.6-.6.6zM250.7 34.2c-.2 0-.4-.1-.5-.2l-2.5-2.5-2.5 2.5c-.3.3-.8.3-1 0-.3-.3-.3-.8 0-1.1l3.1-3.1c.1-.1.3-.2.5-.2s.4.1.5.2l3.1 3.1c.3.3.3.8 0 1.1-.3.2-.5.2-.7.2z"/><g><path class="st0" d="M233.9 15.7c-.3 0-.6-.2-.7-.6-.1-.4.1-.8.5-.9l3.5-.9-.9-3.5c-.1-.4.1-.8.5-.9.4-.1.8.1.9.5l1.1 4.2c.1.4-.1.8-.5.9l-4.2 1.1c-.1.1-.1.1-.2.1zM258.4 29.8c-.3 0-.6-.2-.7-.6l-1.1-4.2c-.1-.4.1-.8.5-.9l4.2-1.1c.4-.1.8.1.9.5.1.4-.1.8-.5.9l-3.5.9.9 3.5c.1.4-.1.8-.5.9-.1.1-.2.1-.2.1z"/></g><g><path class="st0" d="M236.9 29.8h-.2c-.4-.1-.6-.5-.5-.9l.9-3.5-3.5-.9c-.4-.1-.6-.5-.5-.9.1-.4.5-.6.9-.5l4.2 1.1c.4.1.6.5.5.9l-1.1 4.2c0 .3-.3.5-.7.5zM261.4 15.7h-.2l-4.2-1.1c-.4-.1-.6-.5-.5-.9l1.1-4.2c.1-.4.5-.6.9-.5.4.1.6.5.5.9l-.9 3.5 3.5.9c.4.1.6.5.5.9 0 .3-.3.5-.7.5z"/></g></g><g><path class="st0" d="M28.2 33.3c-.4 0-.7-.3-.7-.7V12.7c0-.4.3-.7.7-.7.4 0 .7.3.7.7v19.8c.1.5-.3.8-.7.8z"/><path class="st0" d="M36.8 28.4c-.1 0-.3 0-.4-.1l-17.2-9.9c-.4-.2-.5-.7-.3-1 .2-.4.7-.5 1-.3L37.2 27c.4.2.5.7.3 1-.2.2-.4.4-.7.4z"/><path class="st0" d="M19.6 28.4c-.3 0-.5-.1-.6-.4-.2-.4-.1-.8.3-1l17.1-10c.4-.2.8-.1 1 .3.2.4.1.8-.3 1L20 28.3c-.1 0-.3.1-.4.1zM28.2 16.7c-.2 0-.4-.1-.5-.2l-1.8-1.8c-.3-.3-.3-.8 0-1 .3-.3.8-.3 1 0l1.3 1.3 1.3-1.3c.3-.3.8-.3 1 0 .3.3.3.8 0 1l-1.8 1.8c-.1.1-.3.2-.5.2zM30.1 31.9c-.2 0-.4-.1-.5-.2l-1.3-1.3-1.3 1.3c-.3.3-.8.3-1 0-.3-.3-.3-.8 0-1l1.8-1.8c.3-.3.8-.3 1 0l1.8 1.8c.3.3.3.8 0 1-.2.2-.4.2-.5.2zM19.9 20.7c-.3 0-.6-.2-.7-.6-.1-.4.1-.8.5-.9l1.8-.5L21 17c-.1-.4.1-.8.5-.9.4-.1.8.1.9.5l.7 2.5c.1.2 0 .4-.1.6 0 .1-.2.3-.4.3l-2.5.7h-.2zM34.7 29.3c-.3 0-.6-.2-.7-.6l-.7-2.5c-.1-.4.1-.8.5-.9l2.5-.7c.4-.1.8.1.9.5.1.4-.1.8-.5.9l-1.8.5.5 1.8c.1.4-.1.8-.5.9-.1 0-.2.1-.2.1z"/><g><path class="st0" d="M21.7 29.3h-.2c-.4-.1-.6-.5-.5-.9l.5-1.8-1.8-.6c-.4-.1-.6-.5-.5-.9.1-.4.5-.6.9-.5l2.5.7c.2.1.4.2.5.3.1.2.1.4.1.6l-.7 2.5c-.1.3-.4.6-.8.6zM36.5 20.7h-.2l-2.5-.7c-.4-.1-.6-.5-.5-.9l.7-2.5c.1-.4.5-.6.9-.5.4.1.6.5.5.9l-.5 1.8 1.8.5c.4.1.6.5.5.9-.1.3-.4.5-.7.5z"/></g><g><path class="st0" d="M28.2 19.5c-.2 0-.4-.1-.5-.2l-1.8-1.8c-.3-.3-.3-.8 0-1.1.3-.3.8-.3 1 0l1.3 1.3 1.3-1.3c.3-.3.8-.3 1 0s.3.8 0 1.1l-1.8 1.8c-.1.2-.3.2-.5.2zM30.1 29.1c-.2 0-.4-.1-.5-.2l-1.3-1.3-1.3 1.3c-.3.3-.8.3-1 0-.3-.3-.3-.8 0-1.1l1.8-1.8c.3-.3.8-.3 1 0l1.8 1.8c.3.3.3.8 0 1.1-.2.1-.4.2-.5.2z"/></g><g><path class="st0" d="M22.4 22.1c-.3 0-.6-.2-.7-.6-.1-.4.1-.8.5-.9l1.8-.5-.5-1.8c-.1-.4.1-.8.5-.9.4-.1.8.1.9.5l.7 2.5c.1.4-.1.8-.5.9l-2.5.7c-.1.1-.2.1-.2.1zM32.2 27.8c-.3 0-.6-.2-.7-.6l-.7-2.5c-.1-.2 0-.4.1-.6.1-.2.3-.3.5-.3l2.5-.7c.4-.1.8.1.9.5.1.4-.1.8-.5.9l-1.8.5.5 1.8c.1.4-.1.8-.5.9-.2.1-.2.1-.3.1z"/></g><g><path class="st0" d="M24.2 27.8H24c-.4-.1-.6-.5-.5-.9l.5-1.8-1.8-.5c-.4-.1-.6-.5-.5-.9.1-.4.5-.6.9-.5l2.5.7c.4.1.6.5.5.9l-.7 2.5c-.1.3-.4.5-.7.5zM34.1 22.1h-.2l-2.5-.7c-.2-.1-.4-.2-.5-.3-.1-.2-.1-.4-.1-.6l.7-2.5c.1-.4.5-.6.9-.5.4.1.6.5.5.9l-.5 1.8 1.8.5c.4.1.6.5.5.9 0 .3-.3.5-.6.5z"/></g></g><g><path class="st0" d="M254.7 168.8c-.4 0-.7-.3-.7-.7v-19.8c0-.4.3-.7.7-.7.4 0 .7.3.7.7v19.8c.1.4-.3.7-.7.7z"/><path class="st0" d="M263.3 163.8c-.1 0-.3 0-.4-.1l-17.2-9.9c-.4-.2-.5-.7-.3-1 .2-.4.7-.5 1-.3l17.2 9.9c.4.2.5.7.3 1-.1.3-.3.4-.6.4z"/><path class="st0" d="M246.1 163.8c-.3 0-.5-.1-.6-.4-.2-.4-.1-.8.3-1l17.2-9.9c.4-.2.8-.1 1 .3.2.4.1.8-.3 1l-17.2 9.9c-.1.1-.2.1-.4.1zM254.7 152.2c-.2 0-.4-.1-.5-.2l-1.8-1.8c-.3-.3-.3-.8 0-1 .3-.3.8-.3 1 0l1.3 1.3 1.3-1.3c.3-.3.8-.3 1 0s.3.8 0 1l-1.8 1.8c-.1.1-.3.2-.5.2zM256.6 167.4c-.2 0-.4-.1-.5-.2l-1.3-1.3-1.3 1.3c-.3.3-.8.3-1 0-.3-.3-.3-.8 0-1l1.8-1.8c.3-.3.8-.3 1 0l1.8 1.8c.3.3.3.8 0 1-.2.1-.3.2-.5.2zM246.4 156.2c-.3 0-.6-.2-.7-.5-.1-.4.1-.8.5-.9l1.8-.5-.5-1.8c-.1-.4.1-.8.5-.9.4-.1.8.1.9.5l.7 2.5c.1.4-.1.8-.5.9l-2.5.7h-.2zM261.2 164.7c-.3 0-.6-.2-.7-.6l-.7-2.5c-.1-.4.1-.8.5-.9l2.5-.7c.4-.1.8.1.9.5.1.4-.1.8-.5.9l-1.8.5.5 1.8c.1.4-.1.8-.5.9-.1.1-.1.1-.2.1z"/><g><path class="st0" d="M248.3 164.7h-.2c-.4-.1-.6-.5-.5-.9l.5-1.8-1.8-.5c-.4-.1-.6-.5-.5-.9s.5-.6.9-.5l2.5.7c.2.1.4.2.5.3.1.2.1.4.1.6l-.7 2.5c-.2.3-.5.5-.8.5zM263 156.2h-.2l-2.5-.7c-.4-.1-.6-.5-.5-.9l.7-2.5c.1-.4.5-.6.9-.5.4.1.6.5.5.9l-.5 1.8 1.8.5c.4.1.6.5.5.9 0 .3-.3.5-.7.5z"/></g><g><path class="st0" d="M254.7 155c-.2 0-.4-.1-.5-.2l-1.8-1.8c-.3-.3-.3-.8 0-1 .3-.3.8-.3 1 0l1.3 1.3 1.3-1.3c.3-.3.8-.3 1 0s.3.8 0 1l-1.8 1.8c-.1.2-.3.2-.5.2zM256.6 164.6c-.2 0-.4-.1-.5-.2l-1.3-1.3-1.3 1.3c-.3.3-.8.3-1 0-.3-.3-.3-.8 0-1l1.8-1.8c.3-.3.8-.3 1 0l1.8 1.8c.3.3.3.8 0 1-.2.1-.3.2-.5.2z"/></g><g><path class="st0" d="M248.9 157.6c-.3 0-.6-.2-.7-.6-.1-.4.1-.8.5-.9l1.8-.5-.5-1.8c-.1-.4.1-.8.5-.9.4-.1.8.1.9.5l.7 2.5c.1.4-.1.8-.5.9l-2.5.7c-.1.1-.2.1-.2.1zM258.7 163.3c-.3 0-.6-.2-.7-.5l-.7-2.5c-.1-.2 0-.4.1-.6.1-.2.3-.3.5-.3l2.5-.7c.4-.1.8.1.9.5.1.4-.1.8-.5.9l-1.8.5.5 1.8c.1.4-.1.8-.5.9h-.3z"/></g><g><path class="st0" d="M250.7 163.3h-.2c-.4-.1-.6-.5-.5-.9l.5-1.8-1.8-.5c-.4-.1-.6-.5-.5-.9.1-.4.5-.6.9-.5l2.5.7c.4.1.6.5.5.9l-.7 2.5c-.1.3-.4.5-.7.5zM260.6 157.6h-.2l-2.5-.7c-.2-.1-.4-.2-.5-.3-.1-.2-.1-.4-.1-.6l.7-2.5c.1-.4.5-.6.9-.5.4.1.6.5.5.9l-.5 1.8 1.8.5c.4.1.6.5.5.9 0 .3-.3.5-.6.5z"/></g></g><g><path class="st0" d="M270.7 58.9c-.4 0-.7-.3-.7-.7V38.3c0-.4.3-.7.7-.7s.7.3.7.7v19.8c0 .5-.3.8-.7.8z"/><path class="st0" d="M279.3 53.9c-.1 0-.3 0-.4-.1l-17.2-9.9c-.4-.2-.5-.7-.3-1 .2-.4.7-.5 1-.3l17.2 9.9c.4.2.5.7.3 1-.1.3-.4.4-.6.4z"/><path class="st0" d="M262.1 53.9c-.3 0-.5-.1-.6-.4-.2-.4-.1-.8.3-1l17.2-9.9c.4-.2.8-.1 1 .3.2.4.1.8-.3 1l-17.2 9.9c-.2.1-.3.1-.4.1zM270.7 42.3c-.2 0-.4-.1-.5-.2l-1.8-1.8c-.3-.3-.3-.8 0-1 .3-.3.8-.3 1 0l1.3 1.3 1.3-1.3c.3-.3.8-.3 1 0 .3.3.3.8 0 1l-1.8 1.8c-.1.1-.3.2-.5.2zM272.5 57.5c-.2 0-.4-.1-.5-.2l-1.3-1.3-1.3 1.3c-.3.3-.8.3-1 0s-.3-.8 0-1l1.8-1.8c.3-.3.8-.3 1 0l1.8 1.8c.3.3.3.8 0 1-.1.1-.3.2-.5.2zM262.4 46.3c-.3 0-.6-.2-.7-.6-.1-.4.1-.8.5-.9l1.8-.5-.5-1.8c-.1-.4.1-.8.5-.9.4-.1.8.1.9.5l.7 2.5c.1.2 0 .4-.1.6-.1.2-.3.3-.5.3l-2.5.7c0 .1-.1.1-.1.1zM277.1 54.8c-.3 0-.6-.2-.7-.6l-.7-2.5c-.1-.4.1-.8.5-.9l2.5-.7c.4-.1.8.1.9.5.1.4-.1.8-.5.9l-1.8.5.5 1.8c.1.4-.1.8-.5.9 0 .1-.1.1-.2.1z"/><g><path class="st0" d="M264.2 54.8h-.2c-.4-.1-.6-.5-.5-.9l.5-1.8-1.8-.5c-.4-.1-.6-.5-.5-.9.1-.4.5-.6.9-.5l2.5.7c.2.1.4.2.5.3.1.2.1.4.1.6l-.7 2.5c-.2.3-.5.5-.8.5zM279 46.3h-.2l-2.5-.7c-.4-.1-.6-.5-.5-.9l.7-2.5c.1-.4.5-.6.9-.5.4.1.6.5.5.9l-.5 1.8 1.8.5c.4.1.6.5.5.9-.1.3-.4.5-.7.5z"/></g><g><path class="st0" d="M270.7 45.1c-.2 0-.4-.1-.5-.2l-1.8-1.8c-.3-.3-.3-.8 0-1.1.3-.3.8-.3 1 0l1.3 1.3L272 42c.3-.3.8-.3 1 0 .3.3.3.8 0 1l-1.8 1.8c-.2.3-.3.3-.5.3zM272.5 54.7c-.2 0-.4-.1-.5-.2l-1.3-1.3-1.3 1.3c-.3.3-.8.3-1 0-.3-.3-.3-.8 0-1l1.8-1.8c.3-.3.8-.3 1 0l1.8 1.8c.3.3.3.8 0 1-.1.1-.3.2-.5.2z"/></g><g><path class="st0" d="M264.8 47.7c-.3 0-.6-.2-.7-.6-.1-.4.1-.8.5-.9l1.8-.5-.5-1.8c-.1-.4.1-.8.5-.9.4-.1.8.1.9.5l.7 2.5c.1.4-.1.8-.5.9l-2.5.7c-.1.1-.1.1-.2.1zM274.7 53.4c-.3 0-.6-.2-.7-.6l-.7-2.5c-.1-.2 0-.4.1-.6.1-.2.3-.3.5-.3l2.5-.7c.4-.1.8.1.9.5.1.4-.1.8-.5.9l-1.8.5.5 1.8c.1.4-.1.8-.5.9-.2.1-.3.1-.3.1z"/></g><g><path class="st0" d="M266.7 53.4h-.2c-.4-.1-.6-.5-.5-.9l.5-1.8-1.8-.5c-.4-.1-.6-.5-.5-.9.1-.4.5-.6.9-.5l2.5.7c.4.1.6.5.5.9l-.7 2.5c-.1.3-.4.5-.7.5zM276.5 47.7h-.2l-2.5-.7c-.2-.1-.4-.2-.5-.3-.1-.2-.1-.4-.1-.6l.7-2.5c.1-.4.5-.6.9-.5.4.1.6.5.5.9l-.5 1.8 1.8.5c.4.1.6.5.5.9 0 .3-.3.5-.6.5z"/></g></g></svg>